<svg width="48" height="48" viewBox="0 0 48 48" fill="none" xmlns="http://www.w3.org/2000/svg">
<g clip-path="url(#clip0_125_1423)">
<path d="M37.9769 33.7419H36.6961V32.8798C38.7254 32.1624 40.3107 30.5002 40.9222 28.4238C40.9362 28.424 40.9501 28.4249 40.9641 28.4249C42.3557 28.4249 43.4879 27.2928 43.4879 25.9012C43.4879 24.588 42.4799 23.5065 41.1971 23.3885V23.3102C41.1971 21.1085 40.136 19.1501 38.4986 17.9189V9.56582H39.5322C40.0845 9.56582 40.5781 9.236 40.7895 8.72572C41.0008 8.21544 40.8851 7.63334 40.4944 7.24268L35.5294 2.27767C34.9989 1.74723 34.1355 1.74723 33.6049 2.27767L28.6399 7.24278C28.2493 7.63334 28.1335 8.21553 28.3449 8.72581C28.5564 9.236 29.0499 9.56582 29.6022 9.56582H30.6358V10.8129C29.8209 10.3933 28.8983 10.1547 27.9203 10.1547C27.6213 10.1547 27.324 10.177 27.0307 10.2209C27.0447 10.0472 27.0538 9.8722 27.0538 9.69491C27.0538 8.61331 26.7813 7.5424 26.2657 6.59796C26.0797 6.25709 25.6527 6.13146 25.3116 6.31774C24.9708 6.50374 24.8453 6.93096 25.0314 7.27184C25.4346 8.01022 25.6476 8.84807 25.6476 9.69501C25.6476 12.4884 23.375 14.7609 20.5819 14.7609C17.7887 14.7609 15.5161 12.4884 15.5161 9.69501C15.5161 6.90162 17.7887 4.62911 20.5819 4.62911C21.4302 4.62911 22.2695 4.84296 23.009 5.24768C23.3496 5.43405 23.777 5.3089 23.9633 4.9683C24.1497 4.62761 24.0246 4.20039 23.684 4.01392C22.7381 3.49642 21.6653 3.22286 20.5819 3.22286C19.5996 3.22286 18.6683 3.44383 17.8336 3.83711L14.3949 0.398627C14.1379 0.141563 13.7961 0 13.4326 0C13.0692 0 12.7274 0.141563 12.4704 0.398533L7.50536 5.36346C7.1147 5.75412 6.99892 6.33621 7.21033 6.84659C7.42174 7.35687 7.91524 7.68669 8.46762 7.68669H9.50121V17.9191C7.86386 19.1503 6.8028 21.1086 6.8028 23.3103V23.3886C5.5201 23.5066 4.5121 24.5882 4.5121 25.9013C4.5121 27.2929 5.64423 28.425 7.03586 28.425C7.04983 28.425 7.0637 28.4241 7.07767 28.4239C7.6893 30.5003 9.27462 32.1626 11.3038 32.8799V33.742H9.73578C6.94586 33.742 4.67607 36.0118 4.67607 38.8018V47.297C4.67607 47.6854 4.99088 48.0001 5.3792 48.0001C5.76751 48.0001 6.08232 47.6854 6.08232 47.297V44.1913H15.1109C15.4992 44.1913 15.814 43.8766 15.814 43.4882C15.814 43.0998 15.4992 42.785 15.1109 42.785H6.08232V38.8018C6.08232 36.7873 7.72127 35.1482 9.73578 35.1482H11.3773C11.6297 36.1093 12.5057 36.8204 13.5449 36.8204C14.5842 36.8204 15.4602 36.1094 15.7126 35.1482H17.0668C19.0813 35.1482 20.7202 36.7872 20.7202 38.8018V42.785H18.3961C18.0077 42.785 17.6929 43.0998 17.6929 43.4882C17.6929 43.8766 18.0077 44.1913 18.3961 44.1913H20.7202V47.297C20.7202 47.6854 21.035 48.0001 21.4234 48.0001C21.8117 48.0001 22.1265 47.6854 22.1265 47.297V38.8018C22.1265 36.0118 19.8567 33.742 17.0668 33.742H15.7861V32.8799C17.8152 32.1625 19.4006 30.5003 20.0121 28.4239C20.0261 28.4241 20.0401 28.425 20.054 28.425C21.4457 28.425 22.5778 27.2929 22.5778 25.9013C22.5778 24.5881 21.5698 23.5066 20.287 23.3886V23.3103C20.287 21.0097 19.1281 18.9755 17.3641 17.7584V15.307C18.3126 15.8531 19.4109 16.1672 20.5819 16.1672C21.0582 16.1672 21.5221 16.114 21.9694 16.0159C21.9689 16.0466 21.9674 16.0773 21.9674 16.108C21.9674 19.3601 24.589 22.01 27.8297 22.0588C27.7525 22.4697 27.713 22.8882 27.713 23.3104V23.3887C26.4303 23.5067 25.4222 24.5882 25.4222 25.9014C25.4222 27.293 26.5543 28.4251 27.9459 28.4251C27.9599 28.4251 27.9738 28.4242 27.9878 28.424C28.5994 30.5004 30.1847 32.1627 32.2139 32.88V33.7421H30.6459C27.8559 33.7421 25.5862 36.0119 25.5862 38.8019V39.9976C25.5862 40.386 25.901 40.7007 26.2893 40.7007C26.6776 40.7007 26.9924 40.386 26.9924 39.9976V38.8019C26.9924 37.0898 28.1765 35.6496 29.7684 35.2556L28.6972 38.8109C28.5382 39.3386 28.7544 39.9096 29.2233 40.1996L32.9335 42.4932L33.7519 44.742V47.2972C33.7519 47.6856 34.0667 48.0003 34.455 48.0003C34.8433 48.0003 35.1582 47.6856 35.1582 47.2972V44.742L35.9768 42.4929L39.6822 40.1994C40.1505 39.9093 40.3666 39.3385 40.2076 38.8111L39.1639 35.3475C40.5972 35.8415 41.6301 37.2029 41.6301 38.8019V47.2971C41.6301 47.6855 41.9449 48.0002 42.3332 48.0002C42.7216 48.0002 43.0364 47.6855 43.0364 47.2971V38.8019C43.0366 36.0117 40.7668 33.7419 37.9769 33.7419ZM5.91836 25.9012C5.91836 25.3649 6.29814 24.9159 6.8028 24.8084V26.5223C6.8028 26.6822 6.81039 26.8404 6.82145 26.9975C6.30751 26.8972 5.91836 26.444 5.91836 25.9012ZM14.3798 34.5792C14.3798 35.0395 14.0053 35.414 13.5449 35.414C13.0846 35.414 12.7101 35.0395 12.7101 34.5792V33.2109C12.9839 33.2449 13.2621 33.2644 13.5449 33.2644C13.8278 33.2644 14.106 33.2449 14.3799 33.2109L14.3798 34.5792ZM13.5449 31.8581C10.6028 31.8581 8.20905 29.4644 8.20905 26.5223V25.8692C9.40503 25.6288 10.1441 24.8146 10.5747 24.0949C12.1858 25.774 14.7785 26.1609 16.8232 26.1609C17.6238 26.1609 18.3397 26.1015 18.8807 26.0373V26.5222C18.8808 29.4644 16.4871 31.8581 13.5449 31.8581ZM21.1715 25.9012C21.1715 26.444 20.7823 26.8973 20.2683 26.9976C20.2793 26.8404 20.287 26.6822 20.287 26.5223V24.8084C20.7917 24.9159 21.1715 25.3649 21.1715 25.9012ZM18.8807 23.3103V24.4538C17.8241 24.2643 16.9186 23.6726 16.1842 22.6862C15.4994 21.7664 15.224 20.8366 15.2213 20.8273C15.114 20.4549 14.7255 20.2394 14.3527 20.3458C13.9793 20.4524 13.7629 20.8414 13.8694 21.2149C13.883 21.2624 14.211 22.3911 15.0562 23.5261C15.4065 23.9965 15.7951 24.4006 16.217 24.7363C14.2898 24.6533 12.0176 24.1454 11.0342 22.3671C10.8945 22.1143 10.6141 21.9732 10.3284 22.01C10.0421 22.0471 9.80759 22.2555 9.73709 22.5354C9.73296 22.5517 9.3589 23.9792 8.20905 24.4103V23.3102C8.20905 20.368 10.6027 17.9744 13.5449 17.9744C16.4872 17.9744 18.8807 20.3681 18.8807 23.3103ZM13.5449 16.5682C12.6094 16.5682 11.718 16.7601 10.9075 17.106V6.98356C10.9075 6.59515 10.5927 6.28043 10.2043 6.28043H8.57712L13.4326 1.42501L16.6034 4.59574C15.0872 5.7813 14.1099 7.62556 14.1099 9.69501C14.1099 11.4535 14.8157 13.0495 15.9578 14.2171V17.0163C15.2081 16.7279 14.395 16.5682 13.5449 16.5682ZM34.4551 42.562L34.1715 41.7827C34.1716 41.7829 34.1714 41.7824 34.1715 41.7827L31.7518 35.1482H32.2873C32.5398 36.1093 33.4158 36.8204 34.455 36.8204C35.4943 36.8204 36.3703 36.1094 36.6227 35.1482H37.1535L34.4551 42.562ZM42.0816 25.9012C42.0816 26.444 41.6924 26.8973 41.1784 26.9976C41.1894 26.8404 41.1971 26.6822 41.1971 26.5223V24.8084C41.7017 24.9159 42.0816 25.3649 42.0816 25.9012ZM39.7908 23.3103V23.8007C39.4205 23.6441 39.1154 23.3582 38.9493 22.9882C38.845 22.7554 38.7264 22.5296 38.5965 22.3171C38.3399 21.8973 37.9157 21.5985 37.4329 21.4972C36.956 21.3973 36.4549 21.4985 36.0582 21.7749C35.6123 22.0856 35.0428 22.2568 34.4548 22.2568C33.8667 22.2568 33.2972 22.0856 32.8513 21.7748C32.4549 21.4984 31.9538 21.3971 31.4769 21.4971C30.994 21.5982 30.5699 21.897 30.3131 22.3167C30.183 22.5296 30.0641 22.7556 29.9598 22.9885C29.8377 23.2614 29.6359 23.495 29.3762 23.6639C29.2944 23.7172 29.208 23.7619 29.1189 23.7997V23.3103C29.1189 22.8293 29.1825 22.3545 29.3081 21.8959C31.2879 21.4209 32.8852 19.955 33.5447 18.0532C33.8437 18.0019 34.1487 17.9745 34.4547 17.9745C37.3972 17.9745 39.7908 20.3681 39.7908 23.3103ZM31.3389 8.15966H29.7118L34.5672 3.30423L39.4227 8.15966H37.7954C37.4071 8.15966 37.0923 8.47438 37.0923 8.86278V17.1059C36.2818 16.76 35.3904 16.5682 34.4549 16.5682C34.2533 16.5682 34.0519 16.5787 33.8515 16.5965C33.8647 16.4353 33.8731 16.2726 33.8731 16.108C33.8731 14.4242 33.1693 12.9028 32.042 11.8188V8.86288C32.042 8.47447 31.7272 8.15966 31.3389 8.15966ZM23.3735 16.1079C23.3735 15.9092 23.3866 15.7102 23.4121 15.5141C24.97 14.7532 26.178 13.3845 26.7278 11.7189C27.1147 11.6141 27.515 11.561 27.9202 11.561C30.4272 11.561 32.4669 13.6007 32.4669 16.1079C32.4669 18.615 30.4272 20.6547 27.9202 20.6547C25.4131 20.6547 23.3735 18.6151 23.3735 16.1079ZM26.8284 25.9012C26.8284 25.3648 27.2082 24.9159 27.713 24.8084V26.5223C27.713 26.6822 27.7206 26.8404 27.7316 26.9976C27.2176 26.8973 26.8284 26.444 26.8284 25.9012ZM29.1192 26.5223V25.2688C29.4821 25.1901 29.8291 25.047 30.1433 24.8427C30.6304 24.5258 31.0109 24.0833 31.2437 23.563C31.3236 23.3847 31.4142 23.2122 31.5131 23.0503C31.5889 22.9266 31.7038 22.8863 31.7655 22.8733C31.8238 22.8612 31.9379 22.8519 32.0475 22.9284C32.7271 23.4022 33.5822 23.663 34.4551 23.663C35.3279 23.663 36.1828 23.4022 36.8624 22.9286C36.9719 22.8523 37.0861 22.8615 37.1444 22.8735C37.2062 22.8865 37.3211 22.9267 37.3966 23.0504C37.4954 23.2121 37.586 23.3845 37.6662 23.5634C38.0592 24.4397 38.8583 25.0662 39.7909 25.2687V26.5223C39.7909 29.4644 37.3973 31.8581 34.455 31.8581C31.5128 31.8581 29.1192 29.4644 29.1192 26.5223ZM34.455 33.2643C34.7379 33.2643 35.0161 33.2448 35.2899 33.2108V34.5792C35.2899 35.0395 34.9153 35.414 34.455 35.414C33.9947 35.414 33.6202 35.0395 33.6202 34.5792V33.2108C33.8939 33.2448 34.1722 33.2643 34.455 33.2643ZM30.085 39.0787L30.8105 36.6713L32.1552 40.3585L30.085 39.0787ZM36.7539 40.3578L38.095 36.6734L38.8199 39.079L36.7539 40.3578Z" fill="url(#paint0_linear_125_1423)"/>
<path d="M26.2893 42.5794C25.901 42.5794 25.5862 42.8941 25.5862 43.2825V47.2969C25.5862 47.6853 25.901 48 26.2893 48C26.6776 48 26.9924 47.6853 26.9924 47.2969V43.2825C26.9924 42.8941 26.6776 42.5794 26.2893 42.5794Z" fill="url(#paint1_linear_125_1423)"/>
<path d="M36.8576 44.2788L36.8478 44.2787C36.8456 44.2787 36.8433 44.2787 36.8411 44.2787C36.4559 44.2787 36.1418 44.5892 36.1381 44.9752C36.1345 45.3635 36.4463 45.6813 36.8346 45.6849L36.8444 45.685H36.8511C37.2363 45.685 37.5504 45.3745 37.5541 44.9885C37.5577 44.6001 37.2459 44.2824 36.8576 44.2788Z" fill="url(#paint2_linear_125_1423)"/>
<path d="M30.1925 18.6952C30.1925 18.3068 29.8777 17.9921 29.4894 17.9921H27.7765C27.8813 17.7878 27.9573 17.6 28.0128 17.4348H28.9564C29.3447 17.4348 29.6595 17.1201 29.6595 16.7317C29.6595 16.3433 29.3447 16.0286 28.9564 16.0286H27.7883C27.6578 15.8503 27.5874 15.6366 27.5874 15.4094C27.5874 14.8285 28.06 14.3559 28.6408 14.3559C28.7525 14.3559 28.8622 14.3732 28.967 14.4072C29.3361 14.5276 29.733 14.3254 29.8531 13.956C29.9732 13.5868 29.7712 13.1899 29.4019 13.0699C29.1564 12.9901 28.9004 12.9496 28.6408 12.9496C27.2845 12.9496 26.1811 14.0531 26.1811 15.4094C26.1811 15.6222 26.2096 15.8322 26.263 16.0347C25.9164 16.0781 25.6479 16.3732 25.6479 16.7317C25.6479 17.1201 25.9628 17.4348 26.3511 17.4348H26.4804C26.3535 17.6638 26.1697 17.9288 25.9015 18.2101C25.7073 18.4137 25.6532 18.7134 25.7639 18.972C25.8746 19.2307 26.129 19.3984 26.4103 19.3984H29.4894C29.8777 19.3983 30.1925 19.0836 30.1925 18.6952Z" fill="url(#paint3_linear_125_1423)"/>
<path d="M21.9589 7.76215C22.3257 7.89068 22.7266 7.69737 22.8549 7.33071C22.9833 6.96424 22.7901 6.56309 22.4236 6.43474C22.0562 6.30612 21.6723 6.24096 21.2825 6.24096C19.9888 6.24096 18.8596 6.95637 18.2679 8.01199H17.9764C17.588 8.01199 17.2732 8.32671 17.2732 8.71512C17.2732 9.0574 17.5178 9.34212 17.8416 9.40502C17.8337 9.50074 17.8285 9.5973 17.8285 9.69499C17.8285 9.79268 17.8336 9.88924 17.8415 9.98487C17.5177 10.0478 17.2731 10.3325 17.2731 10.6748C17.2731 11.0632 17.5879 11.3779 17.9763 11.3779H18.2677C18.8594 12.4335 19.9887 13.149 21.2824 13.149C21.672 13.149 22.0559 13.0838 22.4235 12.9551C22.79 12.8268 22.9831 12.4257 22.8548 12.0592C22.7266 11.6927 22.3256 11.4995 21.9589 11.6277C21.741 11.7041 21.5134 11.7428 21.2824 11.7428C20.85 11.7428 20.4487 11.6077 20.1178 11.3779H21.1847C21.573 11.3779 21.8878 11.0632 21.8878 10.6748C21.8878 10.2864 21.573 9.97165 21.1847 9.97165H19.254C19.2417 9.88109 19.2348 9.78884 19.2348 9.69499C19.2348 9.60105 19.2417 9.50881 19.254 9.41824H21.1847C21.573 9.41824 21.8878 9.10352 21.8878 8.71512C21.8878 8.32671 21.573 8.01199 21.1847 8.01199H20.118C20.4489 7.78231 20.8502 7.64721 21.2825 7.64721C21.5136 7.64721 21.7412 7.68584 21.9589 7.76215Z" fill="url(#paint4_linear_125_1423)"/>
</g>
<defs>
<linearGradient id="paint0_linear_125_1423" x1="4.5121" y1="0.126007" x2="54.3838" y2="29.1551" gradientUnits="userSpaceOnUse">
<stop stop-color="#FFE001"/>
<stop offset="1" stop-color="#FFE001" stop-opacity="0"/>
</linearGradient>
<linearGradient id="paint1_linear_125_1423" x1="4.5121" y1="0.126007" x2="54.3838" y2="29.1551" gradientUnits="userSpaceOnUse">
<stop stop-color="#FFE001"/>
<stop offset="1" stop-color="#FFE001" stop-opacity="0"/>
</linearGradient>
<linearGradient id="paint2_linear_125_1423" x1="4.5121" y1="0.126007" x2="54.3838" y2="29.1551" gradientUnits="userSpaceOnUse">
<stop stop-color="#FFE001"/>
<stop offset="1" stop-color="#FFE001" stop-opacity="0"/>
</linearGradient>
<linearGradient id="paint3_linear_125_1423" x1="4.5121" y1="0.126007" x2="54.3838" y2="29.1551" gradientUnits="userSpaceOnUse">
<stop stop-color="#FFE001"/>
<stop offset="1" stop-color="#FFE001" stop-opacity="0"/>
</linearGradient>
<linearGradient id="paint4_linear_125_1423" x1="4.5121" y1="0.126007" x2="54.3838" y2="29.1551" gradientUnits="userSpaceOnUse">
<stop stop-color="#FFE001"/>
<stop offset="1" stop-color="#FFE001" stop-opacity="0"/>
</linearGradient>
<clipPath id="clip0_125_1423">
<rect width="48" height="48" fill="white"/>
</clipPath>
</defs>
</svg>
