<svg width="62" height="48" viewBox="0 0 62 48" fill="none" xmlns="http://www.w3.org/2000/svg">
<path d="M59.1394 14.855H52.4063V2.44933C52.4063 1.09879 51.3075 0 49.957 0H45.4083C44.9071 0 44.501 0.406105 44.501 0.907293C44.501 1.40848 44.9071 1.81459 45.4083 1.81459H49.957C50.3071 1.81459 50.5917 2.09935 50.5917 2.44933V14.855H43.6075C42.0644 14.855 40.809 16.1105 40.809 17.6536V20.871C40.809 21.3722 41.2151 21.7783 41.7163 21.7783C42.2175 21.7783 42.6236 21.3722 42.6236 20.871V17.6536C42.6236 17.111 43.0649 16.6696 43.6075 16.6696H45.905L46.5221 18.6799C46.7966 19.5747 47.6099 20.1759 48.5458 20.1759H54.2008C55.1366 20.1759 55.9501 19.5748 56.2247 18.6801L56.8416 16.6696H59.1393C59.6817 16.6696 60.1231 17.1109 60.1231 17.6536V33.7565H42.6236V25.1099C42.6236 24.6087 42.2175 24.2026 41.7163 24.2026C41.2151 24.2026 40.809 24.6087 40.809 25.1099V27.081H34.6385V1.81459H41.1692C41.6704 1.81459 42.0765 1.40848 42.0765 0.907293C42.0765 0.406105 41.6704 0 41.1692 0H2.44933C1.09879 0 0 1.09879 0 2.44933V19.2925C0 19.7937 0.406104 20.1998 0.907292 20.1998C1.40848 20.1998 1.81458 19.7937 1.81458 19.2925V11.1613L4.51819 12.8717C4.76474 13.0276 5.07128 13.0557 5.3419 12.9467L7.17463 12.2094L9.60956 13.4845C9.93449 13.6549 10.3296 13.6125 10.6112 13.378L15.052 9.67839L16.2976 13.5911C16.3601 13.7872 16.4873 13.9563 16.6585 14.0705L18.9359 15.5903C19.0897 15.693 19.2651 15.743 19.4392 15.743C19.6833 15.743 19.9251 15.6447 20.102 15.4555L24.0442 11.2418H29.3032C29.8044 11.2418 30.2105 10.8357 30.2105 10.3345C30.2105 9.83336 29.8044 9.42725 29.3032 9.42725H23.6506C23.3994 9.42725 23.1595 9.53129 22.988 9.71468L19.3027 13.6538L17.93 12.7378L16.3717 7.84288C16.2801 7.55508 16.0513 7.33177 15.7614 7.24721C15.4711 7.16229 15.1583 7.22773 14.9264 7.42105L9.91489 11.5963L7.64545 10.4077C7.41016 10.2843 7.13265 10.2704 6.88599 10.3697L5.0956 11.0899L1.81458 9.01413V2.44933C1.81458 2.09923 2.09935 1.81459 2.44933 1.81459H32.8239V27.081H1.81458V23.5315C1.81458 23.0303 1.40848 22.6242 0.907292 22.6242C0.406104 22.6242 0 23.0303 0 23.5315V32.4603C0 33.8108 1.09879 34.9096 2.44933 34.9096H19.1479V42.3842H17.6946C16.1463 42.3842 14.8867 43.6438 14.8867 45.1921C14.8867 46.7404 16.1463 48 17.6946 48H34.7114C36.2598 48 37.5193 46.7404 37.5193 45.1921C37.5193 43.6438 36.2598 42.3842 34.7114 42.3842H33.2583V34.9096H40.8089V45.2014C40.8089 46.7446 42.0642 48 43.6074 48H59.1394C60.6825 48 61.9378 46.7446 61.9378 45.2014V17.6536C61.9378 16.1105 60.6825 14.855 59.1394 14.855ZM54.4902 18.1477C54.451 18.2755 54.3347 18.3614 54.2009 18.3614H48.5459C48.4123 18.3614 48.2961 18.2756 48.2568 18.1477L47.8032 16.6696H54.9437L54.4902 18.1477ZM35.7047 45.1922C35.7047 45.7399 35.2591 46.1855 34.7114 46.1855H17.6947C17.1471 46.1855 16.7014 45.7399 16.7014 45.1922C16.7014 44.6446 17.1471 44.1989 17.6947 44.1989H34.7116C35.2592 44.1989 35.7047 44.6445 35.7047 45.1922ZM31.4438 42.3843H20.9624V34.9097H23.1848V36.4364C23.1848 38.1007 24.5387 39.4546 26.2031 39.4546C27.8674 39.4546 29.2213 38.1007 29.2213 36.4364V34.9097H31.4437L31.4438 42.3843ZM24.9994 34.9097H27.4068V36.4364C27.4068 37.1 26.8667 37.64 26.2031 37.64C25.5394 37.64 24.9994 37.1 24.9994 36.4364V34.9097ZM2.44933 33.0951C2.09923 33.0951 1.81458 32.8104 1.81458 32.4604V28.8957H40.809V33.0951H2.44933ZM59.1394 46.1855H43.6075C43.0651 46.1855 42.6236 45.7442 42.6236 45.2015V35.5711H60.1232V45.2014C60.1232 45.7441 59.6819 46.1855 59.1394 46.1855Z" fill="url(#paint0_linear_125_1317)"/>
<path d="M44.94 22.1635H44.9487C45.4457 22.1635 45.851 21.7628 45.8558 21.2646C45.8605 20.7636 45.4581 20.3536 44.9569 20.3489L44.9444 20.3487C44.9416 20.3487 44.9386 20.3487 44.9357 20.3487C44.4387 20.3487 44.0333 20.7494 44.0286 21.2476C44.0239 21.7486 44.4262 22.1586 44.9274 22.1633L44.94 22.1635Z" fill="url(#paint1_linear_125_1317)"/>
<path d="M45.4431 39.7596H50.5603C51.0614 39.7596 51.4676 39.3535 51.4676 38.8523C51.4676 38.3511 51.0614 37.945 50.5603 37.945H45.4431C44.9419 37.945 44.5358 38.3511 44.5358 38.8523C44.5358 39.3535 44.9421 39.7596 45.4431 39.7596Z" fill="url(#paint2_linear_125_1317)"/>
<path d="M57.5752 41.1017H45.4431C44.9419 41.1017 44.5358 41.5078 44.5358 42.009C44.5358 42.5102 44.9419 42.9163 45.4431 42.9163H57.5751C58.0763 42.9163 58.4824 42.5102 58.4824 42.009C58.4824 41.5078 58.0763 41.1017 57.5752 41.1017Z" fill="url(#paint3_linear_125_1317)"/>
<path d="M50.1424 21.2783C49.6412 21.2783 49.2351 21.6844 49.2351 22.1856V22.5618C48.7567 22.5871 48.3762 22.9818 48.3762 23.4667V30.1502C48.3762 30.6349 48.7567 31.0298 49.2351 31.0551V31.4276C49.2351 31.9288 49.6412 32.3349 50.1424 32.3349C50.6436 32.3349 51.0497 31.9288 51.0497 31.4276V31.0575H51.6468V31.4276C51.6468 31.9288 52.0529 32.3349 52.5541 32.3349C53.0553 32.3349 53.4614 31.9288 53.4614 31.4276V30.6428C54.1708 30.183 54.6421 29.3859 54.6421 28.4793C54.6421 27.8419 54.4084 27.2589 54.0237 26.8084C54.4084 26.3579 54.6421 25.775 54.6421 25.1376C54.6421 24.2311 54.1708 23.4339 53.4614 22.9741V22.1855C53.4614 21.6843 53.0553 21.2782 52.5541 21.2782C52.0529 21.2782 51.6468 21.6843 51.6468 22.1855V22.5593H51.0497V22.1855C51.0497 21.6844 50.6436 21.2783 50.1424 21.2783ZM52.0638 24.374C52.4848 24.374 52.8275 24.7166 52.8275 25.1377C52.8275 25.5588 52.4849 25.9013 52.0638 25.9013H50.1909V24.3741L52.0638 24.374ZM52.8274 28.4793C52.8274 28.9003 52.4848 29.2429 52.0637 29.2429H50.1908V27.7157H52.0637C52.4848 27.7157 52.8274 28.0583 52.8274 28.4793Z" fill="url(#paint4_linear_125_1317)"/>
<path d="M17.6834 18.4228C18.1846 18.4228 18.5907 18.0167 18.5907 17.5155C18.5907 17.0143 18.1846 16.6082 17.6834 16.6082H16.545C16.0438 16.6082 15.6377 17.0143 15.6377 17.5155C15.6377 18.0167 16.0438 18.4228 16.545 18.4228H17.6834Z" fill="url(#paint5_linear_125_1317)"/>
<path d="M9.97127 5.35967C9.47008 5.35967 9.06397 5.76577 9.06397 6.26696C9.06397 6.76815 9.47008 7.17425 9.97127 7.17425H12.4369C12.9381 7.17425 13.3442 6.76815 13.3442 6.26696C13.3442 5.76577 12.9381 5.35967 12.4369 5.35967H9.97127Z" fill="url(#paint6_linear_125_1317)"/>
<path d="M37.0807 6.95118V9.28462C37.0807 10.4519 38.0304 11.4016 39.1977 11.4016H46.6167C47.7839 11.4016 48.7337 10.4519 48.7337 9.28462V6.95118C48.7337 5.78392 47.7839 4.83417 46.6167 4.83417H39.1977C38.0304 4.83417 37.0807 5.78392 37.0807 6.95118ZM46.9192 6.95118V9.28462C46.9192 9.45144 46.7836 9.58705 46.6168 9.58705H39.1978C39.031 9.58705 38.8954 9.45144 38.8954 9.28462V6.95118C38.8954 6.78436 39.031 6.64875 39.1978 6.64875H46.6168C46.7835 6.64875 46.9192 6.78436 46.9192 6.95118Z" fill="url(#paint7_linear_125_1317)"/>
<path d="M27.918 14.238H28.7331C29.2343 14.238 29.6404 13.8319 29.6404 13.3307C29.6404 12.8295 29.2343 12.4234 28.7331 12.4234H27.918C27.4168 12.4234 27.0107 12.8295 27.0107 13.3307C27.0107 13.8319 27.4169 14.238 27.918 14.238Z" fill="url(#paint8_linear_125_1317)"/>
<path d="M27.918 17.2232H28.7331C29.2343 17.2232 29.6404 16.8171 29.6404 16.3159C29.6404 15.8147 29.2343 15.4086 28.7331 15.4086H27.918C27.4168 15.4086 27.0107 15.8147 27.0107 16.3159C27.0107 16.8171 27.4169 17.2232 27.918 17.2232Z" fill="url(#paint9_linear_125_1317)"/>
<path d="M27.918 20.2085H28.7331C29.2343 20.2085 29.6404 19.8024 29.6404 19.3013C29.6404 18.8001 29.2343 18.394 28.7331 18.394H27.918C27.4168 18.394 27.0107 18.8001 27.0107 19.3013C27.0107 19.8024 27.4169 20.2085 27.918 20.2085Z" fill="url(#paint10_linear_125_1317)"/>
<path d="M27.918 23.1939H28.7331C29.2343 23.1939 29.6404 22.7878 29.6404 22.2866C29.6404 21.7854 29.2343 21.3793 28.7331 21.3793H27.918C27.4168 21.3793 27.0107 21.7854 27.0107 22.2866C27.0107 22.7878 27.4169 23.1939 27.918 23.1939Z" fill="url(#paint11_linear_125_1317)"/>
<path d="M27.918 26.1793H28.7331C29.2343 26.1793 29.6404 25.7731 29.6404 25.272C29.6404 24.7708 29.2343 24.3647 28.7331 24.3647H27.918C27.4168 24.3647 27.0107 24.7708 27.0107 25.272C27.0107 25.7731 27.4169 26.1793 27.918 26.1793Z" fill="url(#paint12_linear_125_1317)"/>
<defs>
<linearGradient id="paint0_linear_125_1317" x1="-9.53879e-07" y1="0.126006" x2="57.1799" y2="53.0176" gradientUnits="userSpaceOnUse">
<stop stop-color="#FFE001"/>
<stop offset="1" stop-color="#FFE001" stop-opacity="0"/>
</linearGradient>
<linearGradient id="paint1_linear_125_1317" x1="-9.53879e-07" y1="0.126006" x2="57.1799" y2="53.0176" gradientUnits="userSpaceOnUse">
<stop stop-color="#FFE001"/>
<stop offset="1" stop-color="#FFE001" stop-opacity="0"/>
</linearGradient>
<linearGradient id="paint2_linear_125_1317" x1="-9.53879e-07" y1="0.126006" x2="57.1799" y2="53.0176" gradientUnits="userSpaceOnUse">
<stop stop-color="#FFE001"/>
<stop offset="1" stop-color="#FFE001" stop-opacity="0"/>
</linearGradient>
<linearGradient id="paint3_linear_125_1317" x1="-9.53879e-07" y1="0.126006" x2="57.1799" y2="53.0176" gradientUnits="userSpaceOnUse">
<stop stop-color="#FFE001"/>
<stop offset="1" stop-color="#FFE001" stop-opacity="0"/>
</linearGradient>
<linearGradient id="paint4_linear_125_1317" x1="-9.53879e-07" y1="0.126006" x2="57.1799" y2="53.0176" gradientUnits="userSpaceOnUse">
<stop stop-color="#FFE001"/>
<stop offset="1" stop-color="#FFE001" stop-opacity="0"/>
</linearGradient>
<linearGradient id="paint5_linear_125_1317" x1="-9.53879e-07" y1="0.126006" x2="57.1799" y2="53.0176" gradientUnits="userSpaceOnUse">
<stop stop-color="#FFE001"/>
<stop offset="1" stop-color="#FFE001" stop-opacity="0"/>
</linearGradient>
<linearGradient id="paint6_linear_125_1317" x1="-9.53879e-07" y1="0.126006" x2="57.1799" y2="53.0176" gradientUnits="userSpaceOnUse">
<stop stop-color="#FFE001"/>
<stop offset="1" stop-color="#FFE001" stop-opacity="0"/>
</linearGradient>
<linearGradient id="paint7_linear_125_1317" x1="-9.53879e-07" y1="0.126006" x2="57.1799" y2="53.0176" gradientUnits="userSpaceOnUse">
<stop stop-color="#FFE001"/>
<stop offset="1" stop-color="#FFE001" stop-opacity="0"/>
</linearGradient>
<linearGradient id="paint8_linear_125_1317" x1="-9.53879e-07" y1="0.126006" x2="57.1799" y2="53.0176" gradientUnits="userSpaceOnUse">
<stop stop-color="#FFE001"/>
<stop offset="1" stop-color="#FFE001" stop-opacity="0"/>
</linearGradient>
<linearGradient id="paint9_linear_125_1317" x1="-9.53879e-07" y1="0.126006" x2="57.1799" y2="53.0176" gradientUnits="userSpaceOnUse">
<stop stop-color="#FFE001"/>
<stop offset="1" stop-color="#FFE001" stop-opacity="0"/>
</linearGradient>
<linearGradient id="paint10_linear_125_1317" x1="-9.53879e-07" y1="0.126006" x2="57.1799" y2="53.0176" gradientUnits="userSpaceOnUse">
<stop stop-color="#FFE001"/>
<stop offset="1" stop-color="#FFE001" stop-opacity="0"/>
</linearGradient>
<linearGradient id="paint11_linear_125_1317" x1="-9.53879e-07" y1="0.126006" x2="57.1799" y2="53.0176" gradientUnits="userSpaceOnUse">
<stop stop-color="#FFE001"/>
<stop offset="1" stop-color="#FFE001" stop-opacity="0"/>
</linearGradient>
<linearGradient id="paint12_linear_125_1317" x1="-9.53879e-07" y1="0.126006" x2="57.1799" y2="53.0176" gradientUnits="userSpaceOnUse">
<stop stop-color="#FFE001"/>
<stop offset="1" stop-color="#FFE001" stop-opacity="0"/>
</linearGradient>
</defs>
</svg>
