<svg width="30" height="48" viewBox="0 0 30 48" fill="none" xmlns="http://www.w3.org/2000/svg">
<path d="M7.88906 7.01241C6.51731 7.90969 5.67037 9.41344 5.58806 11.0282C2.93053 11.7978 1.0575 14.2483 1.0575 17.0638C1.0575 18.3176 1.43381 19.5388 2.12841 20.5708C0.784218 21.7573 0 23.4712 0 25.2836C0 28.5673 2.53106 31.271 5.74481 31.5458C6.15 33.1129 7.28231 34.3742 8.73703 34.979L9.01453 37.8251C8.52047 38.2324 8.205 38.8488 8.205 39.5376C8.205 40.3805 8.67769 41.115 9.37181 41.4904L9.492 42.723C9.57112 43.5349 10.1056 44.1931 10.8291 44.46C11.1085 46.4714 12.8334 48.0002 14.9017 48.0002C16.9699 48.0002 18.6948 46.4714 18.9743 44.46C19.6977 44.1931 20.2321 43.5349 20.3113 42.723L20.4315 41.4904C21.1256 41.1151 21.5983 40.3806 21.5983 39.5376C21.5983 38.8488 21.2828 38.2324 20.7888 37.8252L21.0662 34.9791C22.5209 34.3745 23.6531 33.1133 24.0584 31.5462C25.2351 31.4469 26.3453 31.0233 27.297 30.306C28.3565 29.5073 29.1507 28.3715 29.5334 27.1075C29.646 26.7358 29.4359 26.3434 29.0643 26.2308C28.6925 26.1181 28.3 26.3284 28.1875 26.6999C27.6327 28.532 26.0259 29.8668 24.1611 30.1188C24.0654 28.9341 23.5946 26.7599 21.474 25.9703C21.1096 25.8346 20.7052 26.02 20.5697 26.3839C20.4342 26.7478 20.6193 27.1526 20.9832 27.2882C22.8284 27.9752 22.7841 30.5502 22.7752 30.8012C22.5149 32.605 20.9505 33.9617 19.1226 33.9617C17.5204 33.9617 16.0876 32.9077 15.6048 31.3875V29.4991C15.636 28.9743 16.075 28.5544 16.6057 28.5544C17.1517 28.5544 17.6022 28.9986 17.6097 29.5447C17.6151 29.9296 17.9288 30.238 18.3126 30.238C18.3158 30.238 18.3191 30.238 18.3224 30.2379C18.7107 30.2326 19.0211 29.9136 19.0158 29.5252C18.9978 28.2145 17.9166 27.1481 16.6057 27.1481C16.2494 27.1481 15.9104 27.2278 15.6048 27.3689V23.3501C15.6198 22.326 16.4646 21.4931 17.4889 21.4931C18.5137 21.4931 19.3588 22.3268 19.373 23.3515C19.3783 23.7365 19.6919 24.0449 20.0758 24.0449C20.079 24.0449 20.0824 24.0449 20.0857 24.0448C20.474 24.0395 20.7844 23.7204 20.779 23.332C20.7545 21.5426 19.2785 20.0868 17.4889 20.0868C16.7903 20.0868 16.1401 20.3092 15.6048 20.6861V13.4857C17.7431 13.604 19.6552 14.2587 20.8133 15.2878C20.9473 15.4069 21.114 15.4654 21.2801 15.4654C21.474 15.4654 21.6671 15.3856 21.806 15.2292C22.0639 14.939 22.0377 14.4945 21.7474 14.2366C21.0278 13.5972 20.0827 13.0787 18.9977 12.7084C20.3625 11.7319 21.3261 10.3018 21.7179 8.66869C22.4717 9.41222 22.8792 10.4521 22.8072 11.535C22.7836 11.8896 23.0283 12.206 23.3775 12.2723C25.6732 12.7087 27.3395 14.7238 27.3395 17.0639C27.3395 18.2274 26.9219 19.3549 26.1636 20.2383C26.034 20.3892 25.9744 20.5881 25.9997 20.7855C26.025 20.9829 26.1326 21.1603 26.2961 21.2738C27.1867 21.8922 27.8542 22.7993 28.1757 23.8282C28.2698 24.129 28.5472 24.3218 28.8466 24.3218C28.916 24.3218 28.9867 24.3114 29.0565 24.2895C29.4271 24.1737 29.6337 23.7794 29.5178 23.4086C29.1763 22.3157 28.5323 21.3297 27.6745 20.5712C28.3693 19.5391 28.7457 18.3178 28.7457 17.0638C28.7457 14.2483 26.8727 11.7978 24.2151 11.0282C24.1329 9.41325 23.2858 7.90978 21.9139 7.01241C21.9138 3.14578 18.768 0 14.9014 0C13.634 0 12.391 0.34275 11.3069 0.991219C10.9736 1.19053 10.8651 1.62225 11.0644 1.95553C11.2639 2.289 11.6959 2.39737 12.0287 2.19806C12.8948 1.68009 13.8881 1.40625 14.9014 1.40625C17.9927 1.40625 20.5075 3.92109 20.5075 7.01241C20.5075 9.3195 19.1248 11.3618 16.9842 12.2189C16.3124 12.1146 15.6136 12.0597 14.9016 12.0597C14.1894 12.0597 13.4905 12.1146 12.8188 12.2189C10.678 11.3619 9.29541 9.3195 9.29541 7.01241C9.29541 6.06253 9.53813 5.12344 9.99722 4.29637C10.1857 3.95681 10.0632 3.52875 9.72375 3.34031C9.38419 3.15216 8.95622 3.27441 8.76769 3.61378C8.19281 4.64906 7.88906 5.82431 7.88906 7.01241ZM7.02731 30.796C7.01803 30.5179 6.98569 27.9708 8.81934 27.2881C9.18328 27.1526 9.36834 26.7477 9.23287 26.3838C9.0975 26.0198 8.69259 25.835 8.32856 25.9702C6.20784 26.7598 5.73713 28.9341 5.6415 30.1188C3.25453 29.8027 1.40616 27.7556 1.40616 25.2836C1.40616 23.6861 2.1915 22.1872 3.507 21.2738C3.67041 21.1603 3.77822 20.9828 3.80344 20.7855C3.82866 20.5882 3.76912 20.3893 3.63956 20.2383C2.88122 19.3548 2.46366 18.2274 2.46366 17.0639C2.46366 14.7238 4.12988 12.7087 6.42562 12.2723C6.77484 12.206 7.01953 11.8896 6.99591 11.5349C6.92391 10.4522 7.33134 9.41241 8.085 8.66897C8.47687 10.302 9.44044 11.7321 10.8052 12.7085C9.72047 13.0788 8.77528 13.5973 8.05584 14.2367C7.7655 14.4946 7.73934 14.9391 7.99725 15.2293C8.25525 15.5197 8.69953 15.5458 8.98987 15.2879C10.148 14.2589 12.06 13.6042 14.1984 13.4858V20.6985C13.6599 20.3143 13.0034 20.0869 12.2975 20.0869C10.5079 20.0869 9.03187 21.5427 9.00731 23.3321C9.00187 23.7205 9.31237 24.0396 9.70069 24.0449C9.70397 24.045 9.70725 24.045 9.71053 24.045C10.0943 24.045 10.408 23.7366 10.4134 23.3516C10.4274 22.3268 11.2727 21.4932 12.2975 21.4932C13.3223 21.4932 14.1674 22.3269 14.1817 23.3516C14.1823 23.4008 14.1985 27.3765 14.1985 27.3765C13.8885 27.2304 13.5435 27.1482 13.1807 27.1482C11.8699 27.1482 10.7887 28.2146 10.7707 29.5252C10.7652 29.9137 11.0757 30.2327 11.464 30.238C11.4674 30.2381 11.4706 30.2381 11.4739 30.2381C11.8577 30.2381 12.1714 29.9297 12.1767 29.5448C12.1842 28.9988 12.6347 28.5545 13.1807 28.5545C13.7267 28.5545 14.1771 28.9987 14.1846 29.5448C14.1851 29.5887 14.1985 31.388 14.1985 31.388C13.7155 32.9079 12.2827 33.9619 10.6807 33.9619C8.85075 33.9615 7.28522 32.6024 7.02731 30.796ZM18.2544 43.1827H11.5488C11.2073 43.1827 10.9248 42.9263 10.8916 42.5864L10.8106 41.7559H18.9925L18.9115 42.5864C18.8784 42.9263 18.5959 43.1827 18.2544 43.1827ZM14.9016 46.5938C13.6539 46.5938 12.5962 45.7487 12.2868 44.5889H17.5163C17.2069 45.7487 16.1492 46.5938 14.9016 46.5938ZM19.4249 37.3201C19.4098 37.3198 19.3948 37.319 19.3796 37.319H15.2191C14.8307 37.319 14.516 37.6337 14.516 38.0221C14.516 38.4105 14.8307 38.7252 15.2191 38.7252H19.3796C19.8275 38.7252 20.1919 39.0896 20.1919 39.5375C20.1919 39.9853 19.8275 40.3496 19.3796 40.3496H10.4234C9.97556 40.3496 9.61116 39.9853 9.61116 39.5375C9.61116 39.0896 9.97556 38.7252 10.4234 38.7252H11.934C12.3224 38.7252 12.6371 38.4105 12.6371 38.0221C12.6371 37.6337 12.3224 37.319 11.934 37.319H10.4234C10.4082 37.319 10.3933 37.3198 10.3782 37.3201L10.1855 35.3426C10.3487 35.3587 10.5137 35.3678 10.6806 35.3678C12.3952 35.3678 13.9693 34.4932 14.9016 33.1226C15.8339 34.4932 17.4079 35.3678 19.1226 35.3678C19.2894 35.3678 19.4544 35.3587 19.6178 35.3426L19.4249 37.3201Z" fill="url(#paint0_linear_142_152)"/>
<path d="M14.9014 9.11653C14.1671 9.11653 13.5469 8.70403 13.5469 8.21578C13.5469 7.82737 13.2322 7.51266 12.8438 7.51266C12.4553 7.51266 12.1406 7.82737 12.1406 8.21578C12.1406 9.28491 13.0155 10.1862 14.1982 10.4468V10.7965C14.1982 11.1849 14.513 11.4997 14.9014 11.4997C15.2898 11.4997 15.6045 11.1849 15.6045 10.7965V10.4468C16.7873 10.1862 17.6622 9.28491 17.6622 8.21578C17.6622 6.57487 16.1493 6.17887 15.1483 5.91694C14.3041 5.69597 13.9511 5.56453 13.9511 5.32294C13.9511 5.04647 14.3575 4.73728 14.9014 4.73728C15.4453 4.73728 15.8517 5.04647 15.8517 5.32294C15.8517 5.71134 16.1664 6.02606 16.5548 6.02606C16.9433 6.02606 17.258 5.71134 17.258 5.32294C17.258 4.43147 16.5616 3.675 15.6045 3.42159V3.05728C15.6045 2.66887 15.2898 2.35416 14.9014 2.35416C14.513 2.35416 14.1982 2.66887 14.1982 3.05728V3.42159C13.2412 3.675 12.5449 4.43147 12.5449 5.32294C12.5449 6.68916 13.8437 7.02909 14.7922 7.27734C15.9084 7.56947 16.256 7.737 16.256 8.21578C16.256 8.70403 15.6356 9.11653 14.9014 9.11653Z" fill="url(#paint1_linear_142_152)"/>
<path d="M22.4185 16.0745C21.0436 16.0745 19.8118 16.8942 19.2806 18.1627C19.1306 18.5208 19.2994 18.9328 19.6576 19.0827C20.0157 19.2329 20.4277 19.0641 20.5777 18.7057C20.8893 17.9616 21.6118 17.4807 22.4184 17.4807C23.225 17.4807 23.9475 17.9617 24.2591 18.7057C24.372 18.9753 24.633 19.1375 24.908 19.1375C24.9985 19.1375 25.0905 19.1198 25.1793 19.0827C25.5375 18.9327 25.7062 18.5208 25.5562 18.1627C25.0251 16.8941 23.7935 16.0745 22.4185 16.0745Z" fill="url(#paint2_linear_142_152)"/>
<path d="M9.87422 19.1376C9.96478 19.1376 10.0568 19.1199 10.1455 19.0828C10.5038 18.9328 10.6725 18.5209 10.5225 18.1627C9.99131 16.8942 8.75962 16.0746 7.38459 16.0746C6.00975 16.0746 4.77797 16.8943 4.24678 18.1627C4.09678 18.5209 4.26553 18.9329 4.62375 19.0828C4.98188 19.233 5.394 19.0642 5.54381 18.7058C5.85544 17.9617 6.57797 17.4808 7.3845 17.4808C8.19112 17.4808 8.91366 17.9617 9.22528 18.7058C9.33825 18.9753 9.59925 19.1376 9.87422 19.1376Z" fill="url(#paint3_linear_142_152)"/>
<defs>
<linearGradient id="paint0_linear_142_152" x1="-4.553e-07" y1="0.126007" x2="42.3833" y2="18.8389" gradientUnits="userSpaceOnUse">
<stop stop-color="#FFE001"/>
<stop offset="1" stop-color="#FFE001" stop-opacity="0"/>
</linearGradient>
<linearGradient id="paint1_linear_142_152" x1="-4.553e-07" y1="0.126007" x2="42.3833" y2="18.8389" gradientUnits="userSpaceOnUse">
<stop stop-color="#FFE001"/>
<stop offset="1" stop-color="#FFE001" stop-opacity="0"/>
</linearGradient>
<linearGradient id="paint2_linear_142_152" x1="-4.553e-07" y1="0.126007" x2="42.3833" y2="18.8389" gradientUnits="userSpaceOnUse">
<stop stop-color="#FFE001"/>
<stop offset="1" stop-color="#FFE001" stop-opacity="0"/>
</linearGradient>
<linearGradient id="paint3_linear_142_152" x1="-4.553e-07" y1="0.126007" x2="42.3833" y2="18.8389" gradientUnits="userSpaceOnUse">
<stop stop-color="#FFE001"/>
<stop offset="1" stop-color="#FFE001" stop-opacity="0"/>
</linearGradient>
</defs>
</svg>
