<svg width="55" height="48" viewBox="0 0 55 48" fill="none" xmlns="http://www.w3.org/2000/svg">
<path d="M51.9316 6.63781H45.2713C44.8319 6.63781 44.4757 6.99396 44.4757 7.43349C44.4757 7.87303 44.8319 8.22917 45.2713 8.22917H51.9316C52.3704 8.22917 52.7273 8.58607 52.7273 9.02486V13.6744H36.6041L33.3855 8.22917H41.5538C41.9932 8.22917 42.3495 7.87303 42.3495 7.43349C42.3495 6.99396 41.9932 6.63781 41.5538 6.63781H32.4448L29.2143 1.17241C28.7803 0.438263 28.0121 0 27.1593 0C26.3066 0 25.5384 0.438263 25.1045 1.17241L21.8739 6.63781H2.38705C1.07078 6.63781 0 7.70869 0 9.02486V45.6129C0 46.9291 1.07078 48 2.38705 48H13.1783C13.6178 48 13.974 47.6439 13.974 47.2043C13.974 46.7648 13.6178 46.4086 13.1783 46.4086H2.38705C1.94836 46.4086 1.59137 46.0517 1.59137 45.6129V15.2658H16.774L12.8338 21.9315V21.2545C12.8338 20.2887 12.0486 19.503 11.0833 19.503H10.4862V17.6943C10.4862 17.2548 10.1299 16.8986 9.69047 16.8986C9.25105 16.8986 8.89479 17.2548 8.89479 17.6943V19.503H8.29739C7.33154 19.503 6.54583 20.2887 6.54583 21.2545V30.9523C6.54583 31.9175 7.33154 32.7028 8.29739 32.7028H8.89479V35.8336C8.89479 36.2731 9.25105 36.6293 9.69047 36.6293C10.1299 36.6293 10.4862 36.2731 10.4862 35.8336V32.7028H11.0833C12.0486 32.7028 12.8338 31.9175 12.8338 30.9523V30.1632H15.2806V32.0198C15.2806 32.9854 16.0661 33.7709 17.0318 33.7709H17.6292V34.9732C17.6292 35.4127 17.9854 35.7689 18.4249 35.7689C18.8643 35.7689 19.2205 35.4127 19.2205 34.9732V33.7711H19.8175C20.7832 33.7711 21.5687 32.9855 21.5687 32.0199V30.1633H24.015V38.8634C24.015 39.8291 24.8005 40.6147 25.7662 40.6147H26.3636V43.2629C26.3636 43.7025 26.7198 44.0586 27.1592 44.0586C27.5987 44.0586 27.9549 43.7025 27.9549 43.2629V40.6147H28.5519C29.5175 40.6147 30.303 39.8291 30.303 38.8634V30.1633H35.0979V33.3438H34.5005C33.5349 33.3438 32.7494 34.1293 32.7494 35.095V38.8634C32.7494 39.8291 33.535 40.6147 34.5005 40.6147H35.0979V41.6716C35.0979 42.1111 35.4542 42.4672 35.8936 42.4672C36.333 42.4672 36.6893 42.1111 36.6893 41.6716V40.6147H37.2863C38.2519 40.6147 39.0374 39.8291 39.0374 38.8634V35.095C39.0374 34.1293 38.2519 33.3438 37.2863 33.3438H36.6893V30.1633H42.1666C43.0346 30.1633 43.8097 29.7132 44.2399 28.9591C44.6701 28.2052 44.6632 27.3088 44.2215 26.5615L40.3222 19.9647C40.0985 19.5863 39.6106 19.461 39.2323 19.6846C38.854 19.9081 38.7286 20.3961 38.9522 20.7744L42.8515 27.3712C43.0637 27.7302 42.9265 28.0498 42.8577 28.1704C42.7888 28.291 42.5836 28.5717 42.1666 28.5717H12.1519C11.7349 28.5717 11.5297 28.291 11.4608 28.1704C11.392 28.0498 11.2548 27.7302 11.467 27.3712L26.4744 1.98221C26.6829 1.62945 27.0228 1.59137 27.1593 1.59137C27.2959 1.59137 27.6358 1.62935 27.8444 1.98221L37.0608 17.5744C37.2844 17.9526 37.7723 18.0783 38.1507 17.8545C38.529 17.631 38.6544 17.143 38.4308 16.7647L37.5448 15.2659H52.7273V45.6129C52.7273 46.0517 52.3704 46.4086 51.9316 46.4086H16.8959C16.4564 46.4086 16.1002 46.7648 16.1002 47.2043C16.1002 47.6439 16.4564 48 16.8959 48H51.9316C53.2479 48 54.3187 46.9291 54.3187 45.6129V9.02486C54.3187 7.70869 53.2479 6.63781 51.9316 6.63781ZM37.2864 34.9352C37.3745 34.9352 37.4462 35.0069 37.4462 35.095V38.8634C37.4462 38.9516 37.3745 39.0233 37.2864 39.0233H34.5006C34.4125 39.0233 34.3409 38.9516 34.3409 38.8634V35.095C34.3409 35.0069 34.4126 34.9352 34.5006 34.9352H37.2864ZM25.6065 30.1633H28.7118V38.8634C28.7118 38.9516 28.6402 39.0233 28.552 39.0233H25.7663C25.6781 39.0233 25.6065 38.9516 25.6065 38.8634V30.1633ZM16.8721 30.1633H19.9774V32.0199C19.9774 32.108 19.9058 32.1797 19.8176 32.1797H17.0319C16.9437 32.1797 16.8721 32.108 16.8721 32.0199V30.1633ZM11.2425 30.9524C11.2425 31.0402 11.1711 31.1116 11.0833 31.1116H8.29739C8.20902 31.1116 8.13719 31.0402 8.13719 30.9524V21.2546C8.13719 21.1664 8.20902 21.0944 8.29739 21.0944H11.0833C11.1711 21.0944 11.2425 21.1664 11.2425 21.2546V24.6239L10.097 26.5617C9.65525 27.309 9.64836 28.2053 10.0786 28.9593C10.3501 29.4353 10.7593 29.7898 11.2425 29.9868V30.9524ZM17.7146 13.6744H1.59137V9.02486C1.59137 8.58607 1.94836 8.22917 2.38705 8.22917H20.9333L17.7146 13.6744Z" fill="url(#paint0_linear_125_1359)"/>
<path d="M44.6282 32.1797C44.1888 32.1797 43.8325 32.5358 43.8325 32.9754V36.5266H43.2351C42.2695 36.5266 41.484 37.3121 41.484 38.2777V40.9853C41.484 41.9509 42.2695 42.7365 43.2351 42.7365H43.8325V43.2629C43.8325 43.7025 44.1888 44.0586 44.6282 44.0586C45.0676 44.0586 45.4239 43.7025 45.4239 43.2629V42.7365H46.0208C46.9864 42.7365 47.7719 41.9509 47.7719 40.9853V38.2777C47.7719 37.3121 46.9864 36.5266 46.0208 36.5266H45.4239V32.9754C45.4239 32.5359 45.0676 32.1797 44.6282 32.1797ZM46.1805 38.2777V40.9853C46.1805 41.0734 46.1089 41.1451 46.0208 41.1451H43.235C43.1469 41.1451 43.0752 41.0734 43.0752 40.9853V38.2777C43.0752 38.1896 43.1469 38.1179 43.235 38.1179H46.0208C46.1089 38.1179 46.1805 38.1896 46.1805 38.2777Z" fill="url(#paint1_linear_125_1359)"/>
<path d="M26.7069 19.5257H27.6118C28.7044 19.5257 29.6129 18.6714 29.6803 17.581L30.1078 10.6611C30.1429 10.0927 29.9395 9.52868 29.5494 9.11376C29.1593 8.69884 28.609 8.46088 28.0394 8.46088H26.2793C25.7097 8.46088 25.1594 8.69884 24.7693 9.11376C24.3792 9.52868 24.1757 10.0927 24.2109 10.6611L24.6384 17.581C24.7058 18.6714 25.6143 19.5257 26.7069 19.5257ZM25.9288 10.2037C25.982 10.1471 26.0983 10.0521 26.2793 10.0521H28.0394C28.2205 10.0521 28.3366 10.1471 28.3899 10.2037C28.443 10.2603 28.5307 10.3822 28.5194 10.5629L28.0919 17.4828C28.0763 17.736 27.8654 17.9343 27.6118 17.9343H26.7069C26.4533 17.9343 26.2424 17.736 26.2268 17.4828L25.7993 10.5629C25.788 10.3822 25.8756 10.2604 25.9288 10.2037Z" fill="url(#paint2_linear_125_1359)"/>
<path d="M27.1593 26.505C28.8322 26.505 30.1931 25.144 30.1931 23.4712C30.1931 21.7983 28.8322 20.4374 27.1593 20.4374C25.4865 20.4374 24.1256 21.7983 24.1256 23.4712C24.1256 25.144 25.4865 26.505 27.1593 26.505ZM27.1593 22.0288C27.9547 22.0288 28.6018 22.6758 28.6018 23.4712C28.6018 24.2665 27.9547 24.9136 27.1593 24.9136C26.364 24.9136 25.7169 24.2665 25.7169 23.4712C25.7169 22.6758 26.364 22.0288 27.1593 22.0288Z" fill="url(#paint3_linear_125_1359)"/>
<path d="M47.3623 19.1874H48.9974C49.4368 19.1874 49.793 18.8313 49.793 18.3917C49.793 17.9522 49.4368 17.5961 48.9974 17.5961H47.3623C46.9229 17.5961 46.5666 17.9522 46.5666 18.3917C46.5666 18.8313 46.9229 19.1874 47.3623 19.1874Z" fill="url(#paint4_linear_125_1359)"/>
<path d="M47.3623 22.0288H48.9974C49.4368 22.0288 49.793 21.6726 49.793 21.2331C49.793 20.7935 49.4368 20.4374 48.9974 20.4374H47.3623C46.9229 20.4374 46.5666 20.7935 46.5666 21.2331C46.5666 21.6726 46.9229 22.0288 47.3623 22.0288Z" fill="url(#paint5_linear_125_1359)"/>
<path d="M6.178 41.362C6.17546 41.362 6.17291 41.362 6.17036 41.362C5.73443 41.362 5.37903 41.7134 5.37489 42.1502C5.37075 42.5897 5.72361 42.9492 6.16304 42.9534L6.17408 42.9535H6.18171C6.61764 42.9535 6.97305 42.6021 6.97719 42.1652C6.98132 41.7258 6.62846 41.3662 6.18903 41.3621L6.178 41.362Z" fill="url(#paint6_linear_125_1359)"/>
<path d="M9.48031 41.3621C9.04088 41.3621 8.68462 41.7182 8.68462 42.1578C8.68462 42.5973 9.04088 42.9535 9.48031 42.9535H13.0688C13.5083 42.9535 13.8645 42.5973 13.8645 42.1578C13.8645 41.7182 13.5083 41.3621 13.0688 41.3621H9.48031Z" fill="url(#paint7_linear_125_1359)"/>
<path d="M8.4769 10.156H8.46586C8.02643 10.156 7.67018 10.5122 7.67018 10.9517C7.67018 11.3912 8.02643 11.7474 8.46586 11.7474H8.4769C8.91632 11.7474 9.27258 11.3912 9.27258 10.9517C9.27258 10.5122 8.91632 10.156 8.4769 10.156Z" fill="url(#paint8_linear_125_1359)"/>
<path d="M11.421 10.156H11.41C10.9706 10.156 10.6143 10.5122 10.6143 10.9517C10.6143 11.3912 10.9706 11.7474 11.41 11.7474H11.421C11.8605 11.7474 12.2167 11.3912 12.2167 10.9517C12.2167 10.5122 11.8605 10.156 11.421 10.156Z" fill="url(#paint9_linear_125_1359)"/>
<defs>
<linearGradient id="paint0_linear_125_1359" x1="-8.36539e-07" y1="0.126006" x2="56.121" y2="45.6523" gradientUnits="userSpaceOnUse">
<stop stop-color="#FFE001"/>
<stop offset="1" stop-color="#FFE001" stop-opacity="0"/>
</linearGradient>
<linearGradient id="paint1_linear_125_1359" x1="-8.36539e-07" y1="0.126006" x2="56.121" y2="45.6523" gradientUnits="userSpaceOnUse">
<stop stop-color="#FFE001"/>
<stop offset="1" stop-color="#FFE001" stop-opacity="0"/>
</linearGradient>
<linearGradient id="paint2_linear_125_1359" x1="-8.36539e-07" y1="0.126006" x2="56.121" y2="45.6523" gradientUnits="userSpaceOnUse">
<stop stop-color="#FFE001"/>
<stop offset="1" stop-color="#FFE001" stop-opacity="0"/>
</linearGradient>
<linearGradient id="paint3_linear_125_1359" x1="-8.36539e-07" y1="0.126006" x2="56.121" y2="45.6523" gradientUnits="userSpaceOnUse">
<stop stop-color="#FFE001"/>
<stop offset="1" stop-color="#FFE001" stop-opacity="0"/>
</linearGradient>
<linearGradient id="paint4_linear_125_1359" x1="-8.36539e-07" y1="0.126006" x2="56.121" y2="45.6523" gradientUnits="userSpaceOnUse">
<stop stop-color="#FFE001"/>
<stop offset="1" stop-color="#FFE001" stop-opacity="0"/>
</linearGradient>
<linearGradient id="paint5_linear_125_1359" x1="-8.36539e-07" y1="0.126006" x2="56.121" y2="45.6523" gradientUnits="userSpaceOnUse">
<stop stop-color="#FFE001"/>
<stop offset="1" stop-color="#FFE001" stop-opacity="0"/>
</linearGradient>
<linearGradient id="paint6_linear_125_1359" x1="-8.36539e-07" y1="0.126006" x2="56.121" y2="45.6523" gradientUnits="userSpaceOnUse">
<stop stop-color="#FFE001"/>
<stop offset="1" stop-color="#FFE001" stop-opacity="0"/>
</linearGradient>
<linearGradient id="paint7_linear_125_1359" x1="-8.36539e-07" y1="0.126006" x2="56.121" y2="45.6523" gradientUnits="userSpaceOnUse">
<stop stop-color="#FFE001"/>
<stop offset="1" stop-color="#FFE001" stop-opacity="0"/>
</linearGradient>
<linearGradient id="paint8_linear_125_1359" x1="-8.36539e-07" y1="0.126006" x2="56.121" y2="45.6523" gradientUnits="userSpaceOnUse">
<stop stop-color="#FFE001"/>
<stop offset="1" stop-color="#FFE001" stop-opacity="0"/>
</linearGradient>
<linearGradient id="paint9_linear_125_1359" x1="-8.36539e-07" y1="0.126006" x2="56.121" y2="45.6523" gradientUnits="userSpaceOnUse">
<stop stop-color="#FFE001"/>
<stop offset="1" stop-color="#FFE001" stop-opacity="0"/>
</linearGradient>
</defs>
</svg>
