<svg width="85" height="48" viewBox="0 0 85 48" fill="none" xmlns="http://www.w3.org/2000/svg">
<path d="M58.8713 46.0968H55.3672C55.6705 45.6722 55.8535 45.1545 55.8535 44.5931V14.425C55.8535 12.9907 54.686 11.8242 53.2517 11.8242H5.66042C4.22661 11.8242 3.05962 12.9912 3.05962 14.425V44.5931C3.05962 45.1658 3.25189 45.6922 3.56703 46.123H0.0295452C0.0295452 46.123 -0.12931 46.2839 0.289677 46.7024C1.47775 47.891 4.14642 47.9938 4.14642 47.9938V47.9908C4.14642 47.9908 54.1339 48.0026 54.1894 47.9995C56.9758 47.9995 57.8755 47.1641 58.6122 46.6767C59.1576 46.1287 58.8713 46.0968 58.8713 46.0968ZM32.7979 46.7312H26.1008V46.2762H32.7969L32.7979 46.7312ZM53.9334 43.9952H4.90214V13.5778H53.9339L53.9334 43.9952Z" fill="url(#paint0_linear_142_93)"/>
<path d="M84.0728 2.33965V2.07437C84.0728 0.928969 83.1449 0 81.9979 0H61.0213C59.8759 0 58.9464 0.928969 58.9464 2.07437V2.83215H58.9557V45.1164H58.9464V45.8742C58.9464 47.0201 59.8759 47.9486 61.0213 47.9486H81.9984C83.1444 47.9486 84.0733 47.0196 84.0733 45.8742V45.3735H84.08V2.33965H84.0728ZM64.6734 1.32945C65.0056 1.32945 65.2744 1.59832 65.2744 1.92991C65.2744 2.2615 65.0056 2.53037 64.6734 2.53037C64.3419 2.53037 64.073 2.2615 64.073 1.92991C64.073 1.59832 64.3419 1.32945 64.6734 1.32945ZM62.0711 1.04567C62.5595 1.04567 62.9559 1.44152 62.9559 1.92991C62.9559 2.4183 62.5595 2.81415 62.0711 2.81415C61.5827 2.81415 61.1869 2.4183 61.1869 1.92991C61.1863 1.44152 61.5822 1.04567 62.0711 1.04567ZM83.5654 44.6023H59.4698V3.79608H83.5659L83.5654 44.6023Z" fill="url(#paint1_linear_142_93)"/>
<defs>
<linearGradient id="paint0_linear_142_93" x1="-1.29488e-06" y1="0.126006" x2="55.8986" y2="70.317" gradientUnits="userSpaceOnUse">
<stop stop-color="#FFE001"/>
<stop offset="1" stop-color="#FFE001" stop-opacity="0"/>
</linearGradient>
<linearGradient id="paint1_linear_142_93" x1="-1.29488e-06" y1="0.126006" x2="55.8986" y2="70.317" gradientUnits="userSpaceOnUse">
<stop stop-color="#FFE001"/>
<stop offset="1" stop-color="#FFE001" stop-opacity="0"/>
</linearGradient>
</defs>
</svg>
