<svg width="48" height="48" viewBox="0 0 48 48" fill="none" xmlns="http://www.w3.org/2000/svg">
<path d="M45.8117 29.8756L47.185 28.5027C48.0492 27.638 48.0492 26.2314 47.185 25.3668C46.766 24.9482 46.2094 24.7175 45.6169 24.7175C45.1723 24.7175 44.7475 24.8475 44.3864 25.0896L44.0971 24.1184L45.5835 22.6316C46.4482 21.7669 46.4482 20.3603 45.5835 19.4961C44.7878 18.6999 43.5331 18.6388 42.6641 19.3086L40.9026 13.395C41.6061 12.7175 42.2799 12.0583 42.9149 11.4233C44.7449 9.59297 46.2328 7.65608 47.1048 5.96858C48.578 3.11652 47.9613 1.59198 47.1846 0.815248C46.4082 0.0385136 44.8837 -0.57782 42.0313 0.895449C40.3441 1.76703 38.4069 3.25495 36.5769 5.08527C35.9419 5.72028 35.2824 6.39375 34.6052 7.09724L28.6913 5.33576C29.3611 4.46711 29.2999 3.21247 28.5042 2.41632C27.6395 1.55207 26.2329 1.5517 25.3687 2.41632L23.8818 3.90314L22.9103 3.61384C23.1523 3.25239 23.2824 2.82758 23.2824 2.383C23.2824 1.79084 23.0516 1.23383 22.6331 0.815248C21.7688 -0.0493771 20.3618 -0.0493771 19.4976 0.815248L18.1246 2.18817L11.1267 0.103699C10.8773 0.0297246 10.6078 0.09784 10.4243 0.281678L8.62291 2.08307C8.32042 2.3852 8.36033 2.90192 8.7053 3.15424L26.3618 16.0782C22.3807 20.5669 18.5458 25.061 15.8384 28.272L10.6448 26.2743C10.3837 26.1739 10.0881 26.2365 9.89036 26.4343L7.75535 28.5693C7.47923 28.8458 7.47923 29.2937 7.75535 29.5698L18.43 40.2445C18.7025 40.5173 19.1581 40.5173 19.4309 40.2445L21.5656 38.1099C21.7633 37.9121 21.8263 37.6162 21.7256 37.3551L19.7283 32.1618C22.9392 29.4544 27.433 25.6195 31.922 21.638L33.3246 23.5548C33.5736 23.895 34.0786 23.9389 34.3841 23.6489C34.6386 23.4072 34.6737 23.0018 34.4668 22.7191L32.984 20.6932C35.3314 18.5981 37.6496 16.4843 39.7527 14.4925L46.4196 36.8735L45.5 37.7927L36.3371 25.2741C36.1063 24.9588 35.6636 24.8904 35.3483 25.1211C35.0326 25.3521 34.9641 25.7949 35.1952 26.1102L44.846 39.2949C45.0983 39.6399 45.615 39.6798 45.9171 39.3773L47.7185 37.5759C47.9024 37.3924 47.9705 37.1226 47.8965 36.8735L45.8117 29.8756ZM26.3695 3.41718C26.6786 3.1081 27.1946 3.1081 27.5037 3.41718C27.8164 3.72992 27.8164 4.23859 27.5037 4.55134L27.1719 4.88312L25.424 4.36237L26.3695 3.41718ZM20.4984 1.8161C20.8108 1.50336 21.3198 1.50336 21.6326 1.8161C21.9453 2.12885 21.9453 2.63752 21.6326 2.95026L21.4143 3.16816L19.6667 2.64777L20.4984 1.8161ZM10.2071 2.49982L11.1267 1.58063L33.5077 8.24714C31.5159 10.3507 29.4021 12.6688 27.3066 15.0162L10.2071 2.49982ZM10.566 27.7604L14.8745 29.4175C13.7938 30.7043 12.9651 31.7001 12.4762 32.2893L9.25645 29.0696L10.566 27.7604ZM13.4814 33.2945C15.9482 30.3183 28.9872 14.6764 37.5778 6.08576C39.2821 4.38105 41.1425 2.9477 42.6809 2.15302C43.836 1.55609 45.3814 1.01337 46.1841 1.8161C46.9869 2.61884 46.4438 4.16425 45.8472 5.31928C45.0525 6.85774 43.6188 8.71772 41.9141 10.4224C33.3242 19.0123 17.6819 32.0516 14.7057 34.5188L13.4814 33.2945ZM20.2399 37.4342L18.9307 38.7434L15.7109 35.5237C16.2998 35.0351 17.2959 34.2064 18.5828 33.1257L20.2399 37.4342ZM45.05 26.3677C45.3627 26.0549 45.8714 26.0549 46.1841 26.3677C46.4969 26.6804 46.4969 27.1891 46.1841 27.5018L45.3525 28.3335L44.8317 26.5859L45.05 26.3677ZM43.4489 20.4965C43.7613 20.1838 44.2703 20.1842 44.583 20.4965C44.8921 20.8056 44.8921 21.3216 44.583 21.6307L43.6375 22.5763L43.1167 20.8283L43.4489 20.4965Z" fill="url(#paint0_linear_142_180)"/>
<path d="M42.4766 40.7535L36.4381 46.792C36.1807 47.0498 36.1635 47.4753 36.4004 47.7522C36.6652 48.0613 37.1511 48.0807 37.439 47.7929L43.4774 41.7544C43.7539 41.4779 43.7539 41.03 43.4774 40.7535C43.2013 40.4774 42.7531 40.4774 42.4766 40.7535Z" fill="url(#paint1_linear_142_180)"/>
<path d="M40.458 38.735C40.7345 38.4589 40.7345 38.0106 40.458 37.7345C40.1819 37.458 39.7337 37.458 39.4575 37.7345L35.6834 41.5083C35.4259 41.7661 35.4087 42.1917 35.6456 42.4685C35.9104 42.7776 36.3964 42.797 36.6842 42.5092L40.458 38.735Z" fill="url(#paint2_linear_142_180)"/>
<path d="M38.1937 34.9612C38.4702 34.6847 38.4702 34.2364 38.1937 33.9603C37.9173 33.6838 37.4694 33.6838 37.1929 33.9603L34.551 36.6022C34.2936 36.8596 34.2764 37.2855 34.5137 37.5624C34.7781 37.8714 35.2641 37.8909 35.5519 37.603L38.1937 34.9612Z" fill="url(#paint3_linear_142_180)"/>
<path d="M7.24668 4.89997C6.97019 4.62385 6.52195 4.62385 6.24583 4.89997L0.207367 10.9388C-0.0691224 11.2149 -0.0691224 11.6632 0.207367 11.9393C0.479829 12.2117 0.935396 12.2117 1.20822 11.9393L7.24668 5.90083C7.52281 5.62434 7.52281 5.17646 7.24668 4.89997Z" fill="url(#paint4_linear_142_180)"/>
<path d="M10.2657 7.91938C9.98924 7.64289 9.54136 7.64289 9.26524 7.91938L5.49107 11.6936C5.23325 11.951 5.21641 12.3765 5.45335 12.6534C5.71812 12.9625 6.20371 12.9819 6.49156 12.694L10.2657 8.92024C10.5422 8.64375 10.5422 8.19551 10.2657 7.91938Z" fill="url(#paint5_linear_142_180)"/>
<path d="M10.3972 13.8264C10.67 14.0988 11.1252 14.0988 11.3981 13.8264L14.0399 11.1845C14.316 10.908 14.316 10.4602 14.0399 10.1837C13.7634 9.90755 13.3155 9.90755 13.0391 10.1837L10.3972 12.8255C10.1211 13.102 10.1211 13.5499 10.3972 13.8264Z" fill="url(#paint6_linear_142_180)"/>
<defs>
<linearGradient id="paint0_linear_142_180" x1="-7.39229e-07" y1="0.125998" x2="54.314" y2="39.0636" gradientUnits="userSpaceOnUse">
<stop stop-color="#FFE001"/>
<stop offset="1" stop-color="#FFE001" stop-opacity="0"/>
</linearGradient>
<linearGradient id="paint1_linear_142_180" x1="-7.39229e-07" y1="0.125998" x2="54.314" y2="39.0636" gradientUnits="userSpaceOnUse">
<stop stop-color="#FFE001"/>
<stop offset="1" stop-color="#FFE001" stop-opacity="0"/>
</linearGradient>
<linearGradient id="paint2_linear_142_180" x1="-7.39229e-07" y1="0.125998" x2="54.314" y2="39.0636" gradientUnits="userSpaceOnUse">
<stop stop-color="#FFE001"/>
<stop offset="1" stop-color="#FFE001" stop-opacity="0"/>
</linearGradient>
<linearGradient id="paint3_linear_142_180" x1="-7.39229e-07" y1="0.125998" x2="54.314" y2="39.0636" gradientUnits="userSpaceOnUse">
<stop stop-color="#FFE001"/>
<stop offset="1" stop-color="#FFE001" stop-opacity="0"/>
</linearGradient>
<linearGradient id="paint4_linear_142_180" x1="-7.39229e-07" y1="0.125998" x2="54.314" y2="39.0636" gradientUnits="userSpaceOnUse">
<stop stop-color="#FFE001"/>
<stop offset="1" stop-color="#FFE001" stop-opacity="0"/>
</linearGradient>
<linearGradient id="paint5_linear_142_180" x1="-7.39229e-07" y1="0.125998" x2="54.314" y2="39.0636" gradientUnits="userSpaceOnUse">
<stop stop-color="#FFE001"/>
<stop offset="1" stop-color="#FFE001" stop-opacity="0"/>
</linearGradient>
<linearGradient id="paint6_linear_142_180" x1="-7.39229e-07" y1="0.125998" x2="54.314" y2="39.0636" gradientUnits="userSpaceOnUse">
<stop stop-color="#FFE001"/>
<stop offset="1" stop-color="#FFE001" stop-opacity="0"/>
</linearGradient>
</defs>
</svg>
