<svg width="48" height="48" viewBox="0 0 48 48" fill="none" xmlns="http://www.w3.org/2000/svg">
<path d="M36.3802 36.053H35.4468C35.0584 36.053 34.7437 35.7382 34.7437 35.3499C34.7437 34.9615 35.0584 34.6467 35.4468 34.6467H36.3802C36.7687 34.6467 37.0834 34.9615 37.0834 35.3499C37.0834 35.7382 36.7687 36.053 36.3802 36.053Z" fill="url(#paint0_linear_113_822)"/>
<path d="M41.7037 36.053H38.687C38.2986 36.053 37.9838 35.7382 37.9838 35.3499C37.9838 34.9615 38.2986 34.6467 38.687 34.6467H41.7037C42.0921 34.6467 42.4068 34.9615 42.4068 35.3499C42.4068 35.7382 42.0921 36.053 41.7037 36.053Z" fill="url(#paint1_linear_113_822)"/>
<path d="M41.7037 38.917H40.7702C40.3818 38.917 40.0671 38.6022 40.0671 38.2139C40.0671 37.8256 40.3818 37.5108 40.7702 37.5108H41.7037C42.0921 37.5108 42.4068 37.8256 42.4068 38.2139C42.4068 38.6022 42.0921 38.917 41.7037 38.917Z" fill="url(#paint2_linear_113_822)"/>
<path d="M38.4635 38.917H35.4468C35.0584 38.917 34.7437 38.6022 34.7437 38.2139C34.7437 37.8256 35.0584 37.5108 35.4468 37.5108H38.4635C38.8519 37.5108 39.1666 37.8256 39.1666 38.2139C39.1666 38.6022 38.8518 38.917 38.4635 38.917Z" fill="url(#paint3_linear_113_822)"/>
<path d="M36.3802 41.7813H35.4468C35.0584 41.7813 34.7437 41.4665 34.7437 41.0782C34.7437 40.6899 35.0584 40.375 35.4468 40.375H36.3802C36.7687 40.375 37.0834 40.6899 37.0834 41.0782C37.0834 41.4665 36.7687 41.7813 36.3802 41.7813Z" fill="url(#paint4_linear_113_822)"/>
<path d="M41.7037 41.7813H38.687C38.2986 41.7813 37.9838 41.4665 37.9838 41.0782C37.9838 40.6899 38.2986 40.375 38.687 40.375H41.7037C42.0921 40.375 42.4068 40.6899 42.4068 41.0782C42.4068 41.4665 42.0921 41.7813 41.7037 41.7813Z" fill="url(#paint5_linear_113_822)"/>
<path d="M48 5.1331C48 3.03554 46.2936 1.3291 44.1961 1.3291H12.7229C12.3345 1.3291 12.0198 1.64391 12.0198 2.03223C12.0198 2.42054 12.3345 2.73535 12.7229 2.73535H44.196C45.5182 2.73535 46.5938 3.81095 46.5938 5.1331V8.4632H1.40625V5.1331C1.40625 3.81095 2.48184 2.73535 3.804 2.73535H9.348C9.73641 2.73535 10.0511 2.42054 10.0511 2.03223C10.0511 1.64391 9.73641 1.3291 9.348 1.3291H3.804C1.70644 1.3291 0 3.03554 0 5.1331V44.7558C0 45.8118 0.859125 46.6709 1.91512 46.6709H20.201C20.5894 46.6709 20.9041 46.3561 20.9041 45.9678C20.9041 45.5795 20.5894 45.2647 20.201 45.2647H1.91512C1.63453 45.2647 1.40625 45.0364 1.40625 44.7558V27.1417L8.40413 20.8801C8.8545 21.2612 9.43622 21.4916 10.0711 21.4916C10.6203 21.4916 11.1296 21.3189 11.5488 21.0258L15.8424 25.0841C15.7823 25.3024 15.7496 25.5318 15.7496 25.7689C15.7496 27.1942 16.9091 28.3537 18.3343 28.3537C19.7596 28.3537 20.9191 27.1941 20.9191 25.7689C20.9191 25.4291 20.8525 25.1048 20.7329 24.8073L27.1724 18.3489C27.5009 18.5003 27.866 18.5854 28.2507 18.5854C28.8518 18.5854 29.4052 18.3786 29.8447 18.0331L33.9848 21.0712C33.9133 21.3078 33.8744 21.5584 33.8744 21.8181C33.8744 23.2434 35.0339 24.4029 36.4591 24.4029C37.8844 24.4029 39.0439 23.2434 39.0439 21.8181C39.0439 21.5229 38.9934 21.2394 38.9019 20.975L46.5938 15.7706V44.7557C46.5938 45.0363 46.3655 45.2646 46.0849 45.2646H23.576C23.1876 45.2646 22.8728 45.5794 22.8728 45.9677C22.8728 46.356 23.1876 46.6708 23.576 46.6708H46.0849C47.1409 46.6708 48 45.8117 48 44.7557V5.1331ZM10.0711 20.0854C9.42122 20.0854 8.89256 19.5567 8.89256 18.9069C8.89256 18.257 9.42131 17.7283 10.0711 17.7283C10.7209 17.7283 11.2496 18.2571 11.2496 18.9069C11.2496 19.5566 10.721 20.0854 10.0711 20.0854ZM18.3344 26.9473C17.6845 26.9473 17.156 26.4186 17.156 25.7688C17.156 25.119 17.6846 24.5903 18.3344 24.5903C18.9842 24.5903 19.5129 25.1189 19.5129 25.7688C19.5129 26.4187 18.9843 26.9473 18.3344 26.9473ZM28.2508 17.1791C27.6009 17.1791 27.0723 16.6505 27.0723 16.0006C27.0723 15.3507 27.601 14.8221 28.2508 14.8221C28.9006 14.8221 29.4293 15.3508 29.4293 16.0006C29.4293 16.6504 28.9007 17.1791 28.2508 17.1791ZM36.4592 22.9965C35.8093 22.9965 35.2808 22.4679 35.2808 21.818C35.2808 21.1681 35.8094 20.6394 36.4592 20.6394C37.109 20.6394 37.6377 21.1681 37.6377 21.818C37.6377 22.4679 37.1091 22.9965 36.4592 22.9965ZM38.0982 19.8209C37.6519 19.4539 37.0808 19.2333 36.4592 19.2333C35.8023 19.2333 35.2023 19.48 34.7458 19.8851L30.6749 16.8978C30.7788 16.6181 30.8357 16.316 30.8357 16.0006C30.8357 14.5753 29.6762 13.4158 28.2509 13.4158C26.8256 13.4158 25.6661 14.5754 25.6661 16.0006C25.6661 16.5299 25.8263 17.0223 26.1003 17.4325L19.8642 23.687C19.4356 23.3712 18.9066 23.1841 18.3345 23.1841C17.6647 23.1841 17.0538 23.4402 16.5941 23.8596L12.4421 19.9351C12.5794 19.6197 12.656 19.2722 12.656 18.9069C12.656 17.4816 11.4965 16.3221 10.0712 16.3221C8.64591 16.3221 7.48641 17.4817 7.48641 18.9069C7.48641 19.1842 7.53084 19.4513 7.61203 19.7019L1.40625 25.2547V9.86945H46.5938V14.0727L38.0982 19.8209Z" fill="url(#paint6_linear_113_822)"/>
<path d="M10.3965 27.8985H8.04966C7.05694 27.8985 6.24928 28.7062 6.24928 29.6989V40.375H5.60063C5.21231 40.375 4.8975 40.6899 4.8975 41.0782C4.8975 41.4665 5.21231 41.7813 5.60063 41.7813H29.5251C29.9135 41.7813 30.2282 41.4665 30.2282 41.0782C30.2282 40.6899 29.9135 40.375 29.5251 40.375H28.1876V33.7056C28.1876 32.7129 27.38 31.9052 26.3872 31.9052H24.0404C23.0477 31.9052 22.24 32.7129 22.24 33.7056V40.375H20.1922V35.0515C20.1922 34.0588 19.3846 33.2512 18.3919 33.2512H16.045C15.0523 33.2512 14.2447 34.0588 14.2447 35.0515V40.375H12.1969V29.6988C12.1969 28.7061 11.3892 27.8985 10.3965 27.8985ZM7.65553 40.375V29.6988C7.65553 29.4815 7.83234 29.3047 8.04966 29.3047H10.3965C10.6138 29.3047 10.7906 29.4815 10.7906 29.6988V40.3749L7.65553 40.375ZM23.6463 33.7056C23.6463 33.4883 23.8231 33.3114 24.0404 33.3114H26.3872C26.6046 33.3114 26.7814 33.4883 26.7814 33.7056V40.375H23.6463V33.7056ZM15.6509 35.0515C15.6509 34.8342 15.8277 34.6574 16.045 34.6574H18.3919C18.6092 34.6574 18.786 34.8342 18.786 35.0515V40.375H15.6509V35.0515Z" fill="url(#paint7_linear_113_822)"/>
<path d="M41.2214 6.53598C41.6098 6.53598 41.9245 6.22116 41.9245 5.83285C41.9245 5.44454 41.6098 5.12973 41.2214 5.12973H35.1643C34.7759 5.12973 34.4612 5.44454 34.4612 5.83285C34.4612 6.22116 34.7759 6.53598 35.1643 6.53598H41.2214Z" fill="url(#paint8_linear_113_822)"/>
<defs>
<linearGradient id="paint0_linear_113_822" x1="-7.39228e-07" y1="1.44813" x2="52.1787" y2="41.0454" gradientUnits="userSpaceOnUse">
<stop stop-color="#FFE001"/>
<stop offset="1" stop-color="#FFE001" stop-opacity="0"/>
</linearGradient>
<linearGradient id="paint1_linear_113_822" x1="-7.39228e-07" y1="1.44813" x2="52.1787" y2="41.0454" gradientUnits="userSpaceOnUse">
<stop stop-color="#FFE001"/>
<stop offset="1" stop-color="#FFE001" stop-opacity="0"/>
</linearGradient>
<linearGradient id="paint2_linear_113_822" x1="-7.39228e-07" y1="1.44813" x2="52.1787" y2="41.0454" gradientUnits="userSpaceOnUse">
<stop stop-color="#FFE001"/>
<stop offset="1" stop-color="#FFE001" stop-opacity="0"/>
</linearGradient>
<linearGradient id="paint3_linear_113_822" x1="-7.39228e-07" y1="1.44813" x2="52.1787" y2="41.0454" gradientUnits="userSpaceOnUse">
<stop stop-color="#FFE001"/>
<stop offset="1" stop-color="#FFE001" stop-opacity="0"/>
</linearGradient>
<linearGradient id="paint4_linear_113_822" x1="-7.39228e-07" y1="1.44813" x2="52.1787" y2="41.0454" gradientUnits="userSpaceOnUse">
<stop stop-color="#FFE001"/>
<stop offset="1" stop-color="#FFE001" stop-opacity="0"/>
</linearGradient>
<linearGradient id="paint5_linear_113_822" x1="-7.39228e-07" y1="1.44813" x2="52.1787" y2="41.0454" gradientUnits="userSpaceOnUse">
<stop stop-color="#FFE001"/>
<stop offset="1" stop-color="#FFE001" stop-opacity="0"/>
</linearGradient>
<linearGradient id="paint6_linear_113_822" x1="-7.39228e-07" y1="1.44813" x2="52.1787" y2="41.0454" gradientUnits="userSpaceOnUse">
<stop stop-color="#FFE001"/>
<stop offset="1" stop-color="#FFE001" stop-opacity="0"/>
</linearGradient>
<linearGradient id="paint7_linear_113_822" x1="-7.39228e-07" y1="1.44813" x2="52.1787" y2="41.0454" gradientUnits="userSpaceOnUse">
<stop stop-color="#FFE001"/>
<stop offset="1" stop-color="#FFE001" stop-opacity="0"/>
</linearGradient>
<linearGradient id="paint8_linear_113_822" x1="-7.39228e-07" y1="1.44813" x2="52.1787" y2="41.0454" gradientUnits="userSpaceOnUse">
<stop stop-color="#FFE001"/>
<stop offset="1" stop-color="#FFE001" stop-opacity="0"/>
</linearGradient>
</defs>
</svg>
