<svg width="48" height="48" viewBox="0 0 48 48" fill="none" xmlns="http://www.w3.org/2000/svg">
<g clip-path="url(#clip0_142_143)">
<path d="M3.62252 26.1259C2.91646 25.4198 2.91646 24.271 3.62252 23.5654L20.8524 6.33546C21.1271 6.0608 21.1271 5.61549 20.8524 5.3412C20.5778 5.06617 20.1324 5.06654 19.8581 5.3412L2.62789 22.5711C1.37398 23.825 1.37398 25.8659 2.62789 27.1202L6.96786 31.4598C7.10482 31.5967 7.285 31.6656 7.46481 31.6656C7.64499 31.6656 7.8248 31.5971 7.96212 31.4598C8.23678 31.1851 8.23678 30.7398 7.96212 30.4655L3.62252 26.1259Z" fill="url(#paint0_linear_142_143)"/>
<path d="M17.4448 13.9091L6.8049 24.549C6.53024 24.8237 6.53024 25.269 6.8049 25.5436C6.94223 25.6806 7.12204 25.7494 7.30221 25.7494C7.48202 25.7494 7.66183 25.681 7.79916 25.5436L18.4391 14.9037C18.7137 14.6291 18.7137 14.1837 18.4391 13.9091C18.1648 13.6348 17.7195 13.6348 17.4448 13.9091Z" fill="url(#paint1_linear_142_143)"/>
<path d="M23.8791 12.7848C24.6079 12.7848 25.3367 12.5076 25.8915 11.9528L28.0199 9.82436C29.1295 8.71474 29.1295 6.90932 28.0199 5.79969C26.9103 4.69007 25.1049 4.69007 23.9952 5.79969L21.8668 7.92812C21.3292 8.46572 21.0333 9.18019 21.0333 9.94045C21.0333 10.7003 21.3292 11.4152 21.8668 11.9528C22.4216 12.5076 23.1504 12.7848 23.8791 12.7848ZM22.8611 8.92238L24.9895 6.79396C25.5509 6.23256 26.4642 6.23256 27.0253 6.79396C27.5867 7.35536 27.5867 8.26869 27.0253 8.82973L24.8969 10.9582C24.3358 11.5196 23.4225 11.5196 22.8611 10.9582C22.5894 10.6864 22.4396 10.325 22.4396 9.94045C22.4396 9.55593 22.5894 9.19411 22.8611 8.92238Z" fill="url(#paint2_linear_142_143)"/>
<path d="M43.236 23.3954H36.4677L41.6825 18.1806C42.9368 16.9263 42.9368 14.8854 41.6825 13.6311L28.8995 0.848513C28.292 0.240967 27.4841 -0.09375 26.625 -0.09375C25.7659 -0.09375 24.958 0.240967 24.3501 0.848513L21.8452 3.3534C21.5709 3.62806 21.5709 4.07301 21.8452 4.34767C22.1199 4.62232 22.5652 4.62232 22.8395 4.34767L25.3447 1.84278C25.6864 1.50074 26.1412 1.3125 26.625 1.3125C27.1084 1.3125 27.5632 1.50074 27.9053 1.84278L40.6879 14.6254C41.394 15.3315 41.394 16.4799 40.6879 17.1859L34.4788 23.3951H16.7098L21.8207 18.2842C22.0953 18.0099 22.0953 17.5646 21.8207 17.29C21.546 17.0153 21.1007 17.0153 20.8264 17.29L14.7213 23.3954H12.5163C10.7424 23.3954 9.29953 24.8383 9.29953 26.6119V44.6895C9.29953 46.4631 10.7424 47.9063 12.5163 47.9063H43.236C45.0099 47.9063 46.4528 46.4631 46.4528 44.6895V42.0909C46.4528 41.7024 46.1382 41.3878 45.7497 41.3878C45.3615 41.3878 45.0466 41.7024 45.0466 42.0909V44.6895C45.0466 45.6878 44.2347 46.5001 43.236 46.5001H12.5163C11.518 46.5001 10.7058 45.6878 10.7058 44.6895V34.8234H45.0466V39.2784C45.0466 39.6666 45.3611 39.9815 45.7497 39.9815C46.1382 39.9815 46.4528 39.6666 46.4528 39.2784V26.6122C46.4528 24.8383 45.0099 23.3954 43.236 23.3954ZM12.5163 24.8017H43.236C44.2343 24.8017 45.0466 25.6139 45.0466 26.6122V29.0746H10.7058V26.6122C10.7058 25.6139 11.518 24.8017 12.5163 24.8017ZM10.7058 33.4172V30.4809H45.0466V33.4172H10.7058Z" fill="url(#paint3_linear_142_143)"/>
<path d="M37.3389 39.9815C36.7445 39.9815 36.2608 40.4653 36.2608 41.0597V43.7381C36.2608 44.3329 36.7445 44.8162 37.3389 44.8162H41.5994C42.1938 44.8162 42.6775 44.3329 42.6775 43.7381V41.0597C42.6775 40.4653 42.1938 39.9815 41.5994 39.9815H37.3389ZM41.2713 43.41H37.667V41.3878H41.2713V43.41Z" fill="url(#paint4_linear_142_143)"/>
<path d="M24.4933 39.9815C23.8989 39.9815 23.4152 40.4653 23.4152 41.0597V43.7381C23.4152 44.3329 23.8989 44.8162 24.4933 44.8162H33.5047C34.099 44.8162 34.5828 44.3329 34.5828 43.7381V41.0597C34.5828 40.4653 34.099 39.9815 33.5047 39.9815H24.4933ZM33.1765 43.41H24.8214V41.3878H33.1765V43.41Z" fill="url(#paint5_linear_142_143)"/>
<path d="M15.9554 43.41C15.5672 43.41 15.2523 43.7249 15.2523 44.1131C15.2523 44.5017 15.5672 44.8163 15.9554 44.8163H20.4452C20.8334 44.8163 21.1483 44.5017 21.1483 44.1131C21.1483 43.7249 20.8334 43.41 20.4452 43.41H15.9554Z" fill="url(#paint6_linear_142_143)"/>
</g>
<defs>
<linearGradient id="paint0_linear_142_143" x1="1.68745" y1="0.0322565" x2="54.6865" y2="35.4644" gradientUnits="userSpaceOnUse">
<stop stop-color="#FFE001"/>
<stop offset="1" stop-color="#FFE001" stop-opacity="0"/>
</linearGradient>
<linearGradient id="paint1_linear_142_143" x1="1.68745" y1="0.0322565" x2="54.6865" y2="35.4644" gradientUnits="userSpaceOnUse">
<stop stop-color="#FFE001"/>
<stop offset="1" stop-color="#FFE001" stop-opacity="0"/>
</linearGradient>
<linearGradient id="paint2_linear_142_143" x1="1.68745" y1="0.0322565" x2="54.6865" y2="35.4644" gradientUnits="userSpaceOnUse">
<stop stop-color="#FFE001"/>
<stop offset="1" stop-color="#FFE001" stop-opacity="0"/>
</linearGradient>
<linearGradient id="paint3_linear_142_143" x1="1.68745" y1="0.0322565" x2="54.6865" y2="35.4644" gradientUnits="userSpaceOnUse">
<stop stop-color="#FFE001"/>
<stop offset="1" stop-color="#FFE001" stop-opacity="0"/>
</linearGradient>
<linearGradient id="paint4_linear_142_143" x1="1.68745" y1="0.0322565" x2="54.6865" y2="35.4644" gradientUnits="userSpaceOnUse">
<stop stop-color="#FFE001"/>
<stop offset="1" stop-color="#FFE001" stop-opacity="0"/>
</linearGradient>
<linearGradient id="paint5_linear_142_143" x1="1.68745" y1="0.0322565" x2="54.6865" y2="35.4644" gradientUnits="userSpaceOnUse">
<stop stop-color="#FFE001"/>
<stop offset="1" stop-color="#FFE001" stop-opacity="0"/>
</linearGradient>
<linearGradient id="paint6_linear_142_143" x1="1.68745" y1="0.0322565" x2="54.6865" y2="35.4644" gradientUnits="userSpaceOnUse">
<stop stop-color="#FFE001"/>
<stop offset="1" stop-color="#FFE001" stop-opacity="0"/>
</linearGradient>
<clipPath id="clip0_142_143">
<rect width="48" height="48" fill="white"/>
</clipPath>
</defs>
</svg>
