<svg width="48" height="48" viewBox="0 0 48 48" fill="none" xmlns="http://www.w3.org/2000/svg">
<g clip-path="url(#clip0_125_1035)">
<path d="M24 4.43381C20.0661 4.43381 16.3807 5.97928 13.6217 8.78691L13.5803 8.82919C13.3096 9.10631 13.3147 9.55041 13.5917 9.82125C13.8687 10.092 14.3129 10.0869 14.5837 9.80991L14.6237 9.76903C17.1156 7.23328 20.4455 5.83687 24 5.83687C31.2482 5.83687 37.1451 11.7337 37.1451 18.9819C37.1451 26.2302 31.2482 32.127 24 32.127C16.7518 32.127 10.8549 26.2301 10.8549 18.9819C10.8549 16.614 11.4913 14.293 12.6952 12.2699C12.8933 11.9369 12.7841 11.5064 12.4511 11.3083C12.118 11.1102 11.6876 11.2195 11.4895 11.5524C10.1565 13.7925 9.45187 16.3616 9.45187 18.982C9.45187 27.0038 15.9781 33.5302 23.9999 33.5302C32.0217 33.5302 38.5479 27.0038 38.5479 18.982C38.5479 10.9602 32.0218 4.43381 24 4.43381Z" fill="url(#paint0_linear_125_1035)"/>
<path d="M41.7688 16.0624C41.3882 15.4957 41.0287 14.9603 40.8937 14.4551C40.7496 13.916 40.7926 13.2517 40.8382 12.5485C40.9063 11.4996 40.9767 10.4148 40.4408 9.48872C39.8967 8.54822 38.9137 8.0655 37.9631 7.59863C37.3381 7.29169 36.7477 7.00172 36.3639 6.618C35.9802 6.23419 35.6902 5.64384 35.3832 5.01872C34.9164 4.06819 34.4337 3.08522 33.4931 2.54109C32.5671 2.00531 31.4824 2.07572 30.4333 2.14369C29.7301 2.18934 29.066 2.23247 28.5266 2.08828C28.0214 1.95319 27.4861 1.59375 26.9194 1.21312C26.0729 0.644531 25.1132 0 24 0C22.8868 0 21.9271 0.644531 21.0803 1.21322C20.5136 1.59384 19.9784 1.95328 19.4732 2.08828C18.934 2.23247 18.2698 2.18934 17.5666 2.14369C16.5175 2.07572 15.4329 2.00531 14.5068 2.54109C13.5663 3.08522 13.0836 4.06819 12.6167 5.01872C12.3097 5.64384 12.0198 6.23428 11.636 6.618C11.2522 7.00172 10.6619 7.29169 10.0368 7.59863C9.08615 8.06541 8.10328 8.54822 7.55906 9.48872C7.02319 10.4148 7.09359 11.4996 7.16165 12.5486C7.20731 13.2518 7.25034 13.916 7.10625 14.4551C6.97115 14.9603 6.61172 15.4957 6.23109 16.0624C5.6625 16.9091 5.01797 17.8687 5.01797 18.9819C5.01797 20.0951 5.6624 21.0548 6.23109 21.9016C6.61162 22.4683 6.97115 23.0036 7.10615 23.5088C7.25025 24.048 7.20722 24.7122 7.16156 25.4154C7.0935 26.4644 7.02309 27.5491 7.55897 28.4752C8.10309 29.4157 9.08606 29.8986 10.0367 30.3653C10.6617 30.6723 11.2522 30.9622 11.6359 31.346C11.9917 31.7017 12.2669 32.2357 12.5497 32.8097L7.45434 42.1837C7.23572 42.5859 7.242 43.0627 7.47122 43.4588C7.70044 43.8551 8.1104 44.0982 8.568 44.1093L12.4756 44.2039L14.6801 47.4316C14.9255 47.7908 15.3233 48 15.7546 48C15.7771 48 15.7998 47.9994 15.8225 47.9983C16.2796 47.9752 16.683 47.7212 16.9016 47.319L22.2519 37.4761C22.7904 37.7579 23.3706 37.964 23.9999 37.964C24.6292 37.964 25.2094 37.7579 25.7479 37.4761L31.0982 47.3191C31.3168 47.7213 31.7202 47.9752 32.1773 47.9984C32.2001 47.9995 32.2227 48.0001 32.2452 48.0001C32.6765 48.0001 33.0743 47.7909 33.3197 47.4317L35.5242 44.204L39.4317 44.1094C39.8893 44.0983 40.2994 43.8551 40.5285 43.4589C40.7577 43.0627 40.764 42.586 40.5454 42.1838L38.6821 38.7559C38.497 38.4154 38.0711 38.2893 37.7307 38.4745C37.3903 38.6596 37.2644 39.0855 37.4494 39.4259L39.2348 42.7106L35.4391 42.8025C35.0208 42.8126 34.6302 43.025 34.3943 43.3704L32.2529 46.5057L26.9422 36.7355C27.5004 36.3606 28.0282 36.0088 28.5266 35.8756C29.0658 35.7315 29.73 35.7745 30.4332 35.8202C31.4824 35.8882 32.567 35.9587 33.493 35.4228C33.9832 35.1392 34.3485 34.7359 34.6525 34.2805L35.9059 36.5864C36.0908 36.9268 36.5166 37.0527 36.8572 36.8677C37.1977 36.6827 37.3236 36.2568 37.1386 35.9164L35.4499 32.8096C35.7327 32.2357 36.008 31.7017 36.3637 31.346C36.7475 30.9622 37.3378 30.6723 37.9629 30.3653C38.9136 29.8986 39.8964 29.4157 40.4407 28.4752C40.9765 27.5492 40.9061 26.4644 40.8381 25.4153C40.7924 24.7122 40.7494 24.048 40.8935 23.5087C41.0286 23.0035 41.388 22.4683 41.7685 21.9016C42.3371 21.0548 42.9817 20.0951 42.9817 18.9819C42.9819 17.8687 42.3374 16.909 41.7688 16.0624ZM15.7469 46.5057L13.6056 43.3705C13.3696 43.0251 12.979 42.8127 12.5607 42.8026L8.76506 42.7107L13.3473 34.2807C13.6513 34.736 14.0166 35.1393 14.5068 35.4229C15.4329 35.9587 16.5178 35.8883 17.5666 35.8203C18.2698 35.7746 18.934 35.7316 19.4732 35.8757C19.9717 36.0089 20.4995 36.3607 21.0577 36.7356L15.7469 46.5057ZM40.604 21.1193C40.1761 21.7566 39.7336 22.4154 39.5382 23.1465C39.3345 23.9085 39.3872 24.7207 39.4382 25.5062C39.4952 26.385 39.549 27.2151 39.2264 27.7726C38.8957 28.3442 38.1423 28.7142 37.3447 29.106C36.6443 29.4499 35.9202 29.8055 35.3719 30.3539C34.8234 30.9022 34.4678 31.6265 34.1239 32.3268C33.7322 33.1244 33.3622 33.8777 32.7907 34.2084C32.233 34.531 31.4032 34.4771 30.5242 34.4202C29.7387 34.3692 28.9266 34.3166 28.1646 34.5202C27.4336 34.7157 26.7747 35.1581 26.1375 35.5861C25.391 36.0875 24.6859 36.561 24 36.561C23.3142 36.561 22.6091 36.0875 21.8626 35.5861C21.2254 35.1582 20.5666 34.7157 19.8354 34.5202C19.4171 34.4084 18.9838 34.3739 18.548 34.3739C18.1898 34.3739 17.83 34.3972 17.4757 34.4203C16.5968 34.4772 15.7669 34.5312 15.2093 34.2085C14.6377 33.8778 14.2677 33.1244 13.876 32.3268C13.5322 31.6265 13.1765 30.9023 12.628 30.3539C12.0797 29.8056 11.3556 29.4499 10.6552 29.106C9.85762 28.7143 9.10425 28.3443 8.7735 27.7726C8.4509 27.2151 8.50472 26.385 8.56172 25.5063C8.61272 24.7208 8.6654 23.9086 8.46169 23.1466C8.26631 22.4155 7.82381 21.7566 7.39584 21.1194C6.89456 20.3729 6.42103 19.6678 6.42103 18.982C6.42103 18.2963 6.89456 17.5912 7.39584 16.8446C7.82381 16.2074 8.26622 15.5485 8.46169 14.8175C8.6654 14.0555 8.61272 13.2432 8.56172 12.4578C8.50472 11.579 8.4509 10.7489 8.7735 10.1914C9.10425 9.61978 9.85762 9.24975 10.6552 8.85797C11.3556 8.51409 12.0797 8.15841 12.628 7.61006C13.1764 7.06172 13.5321 6.3375 13.876 5.63719C14.2677 4.83966 14.6377 4.08628 15.2093 3.75553C15.7669 3.43303 16.5968 3.48684 17.4757 3.54375C18.2612 3.59475 19.0733 3.64744 19.8354 3.44372C20.5664 3.24825 21.2253 2.80584 21.8625 2.37787C22.609 1.8765 23.3141 1.40297 24 1.40297C24.6858 1.40297 25.3909 1.8765 26.1374 2.37778C26.7746 2.80575 27.4335 3.24825 28.1646 3.44362C28.9266 3.64734 29.7389 3.59466 30.5243 3.54366C31.4032 3.48675 32.2332 3.43284 32.7907 3.75544C33.3622 4.08619 33.7323 4.83956 34.124 5.63709C34.4678 6.33741 34.8235 7.06153 35.372 7.60997C35.9203 8.15831 36.6445 8.514 37.3447 8.85787C38.1424 9.24956 38.8957 9.61959 39.2264 10.1912C39.549 10.7487 39.4952 11.5788 39.4382 12.4575C39.3872 13.2429 39.3345 14.0552 39.5382 14.8172C39.7336 15.5482 40.1761 16.2072 40.6041 16.8443C41.1053 17.5909 41.5789 18.296 41.5789 18.9817C41.5789 19.6677 41.1053 20.3728 40.604 21.1193Z" fill="url(#paint1_linear_125_1035)"/>
<path d="M33.6337 18.3247C34.1077 17.8626 34.275 17.1845 34.0704 16.5549C33.8659 15.9254 33.3319 15.4751 32.6768 15.38L27.9192 14.6887C27.8138 14.6734 27.7228 14.6072 27.6757 14.5117L25.5481 10.2007C25.2551 9.60703 24.6619 9.23831 24 9.23831C23.3381 9.23831 22.7449 9.60703 22.4519 10.2007L20.3242 14.5117C20.2772 14.6072 20.1862 14.6734 20.0808 14.6887L15.3232 15.38C14.6682 15.4751 14.1341 15.9253 13.9296 16.5549C13.725 17.1845 13.8923 17.8626 14.3664 18.3247L17.809 21.6803C17.8853 21.7547 17.92 21.8617 17.902 21.9666L17.0893 26.705C16.9774 27.3575 17.2406 28.0044 17.7761 28.3935C18.0787 28.6133 18.4327 28.725 18.7892 28.725C19.0635 28.725 19.3393 28.6588 19.5942 28.5248L23.8494 26.2877C23.9437 26.2382 24.0562 26.2382 24.1504 26.2877L28.4057 28.5248C28.9915 28.8328 29.6882 28.7825 30.2238 28.3935C30.7594 28.0044 31.0225 27.3574 30.9106 26.705L30.0979 21.9666C30.0799 21.8617 30.1147 21.7547 30.1908 21.6804L33.6337 18.3247ZM28.7152 22.2037L29.5279 26.9422C29.5585 27.1209 29.4481 27.2228 29.3992 27.2584C29.3503 27.2939 29.2193 27.3673 29.0587 27.2829L24.8033 25.0458C24.3003 24.7813 23.6997 24.7814 23.1967 25.0458L18.9413 27.283C18.7809 27.3674 18.6498 27.2939 18.6008 27.2584C18.552 27.2228 18.4416 27.1209 18.4722 26.9422L19.2849 22.2038C19.381 21.6438 19.1955 21.0726 18.7884 20.6757L15.3458 17.32C15.2159 17.1934 15.2453 17.046 15.264 16.9886C15.2827 16.9312 15.3455 16.7947 15.525 16.7686L20.2826 16.0773C20.845 15.9955 21.3309 15.6426 21.5825 15.1329L23.7101 10.8218C23.7904 10.6592 23.9396 10.6417 24.0001 10.6417C24.0606 10.6417 24.2097 10.6592 24.2901 10.8218L26.4177 15.1329C26.6692 15.6426 27.1552 15.9956 27.7176 16.0773L32.4752 16.7686C32.6547 16.7947 32.7174 16.9312 32.7362 16.9886C32.7548 17.0461 32.7843 17.1935 32.6544 17.32L29.2117 20.6758C28.8046 21.0726 28.6191 21.6438 28.7152 22.2037Z" fill="url(#paint2_linear_125_1035)"/>
</g>
<defs>
<linearGradient id="paint0_linear_125_1035" x1="5.01797" y1="0.126007" x2="54.233" y2="28.0291" gradientUnits="userSpaceOnUse">
<stop stop-color="#FFE001"/>
<stop offset="1" stop-color="#FFE001" stop-opacity="0"/>
</linearGradient>
<linearGradient id="paint1_linear_125_1035" x1="5.01797" y1="0.126007" x2="54.233" y2="28.0291" gradientUnits="userSpaceOnUse">
<stop stop-color="#FFE001"/>
<stop offset="1" stop-color="#FFE001" stop-opacity="0"/>
</linearGradient>
<linearGradient id="paint2_linear_125_1035" x1="5.01797" y1="0.126007" x2="54.233" y2="28.0291" gradientUnits="userSpaceOnUse">
<stop stop-color="#FFE001"/>
<stop offset="1" stop-color="#FFE001" stop-opacity="0"/>
</linearGradient>
<clipPath id="clip0_125_1035">
<rect width="48" height="48" fill="white"/>
</clipPath>
</defs>
</svg>
