<svg width="18" height="15" viewBox="0 0 18 15" fill="none" xmlns="http://www.w3.org/2000/svg">
<path d="M17.832 7.85993L10.9382 14.7537C10.8293 14.8552 10.6852 14.9105 10.5364 14.9078C10.3876 14.9052 10.2456 14.8449 10.1403 14.7397C10.0351 14.6344 9.97477 14.4924 9.97215 14.3436C9.96952 14.1947 10.0248 14.0507 10.1262 13.9418L16.0386 8.02845H0.574484C0.422122 8.02845 0.275999 7.96792 0.168262 7.86019C0.0605258 7.75245 0 7.60633 0 7.45396C0 7.3016 0.0605258 7.15548 0.168262 7.04774C0.275999 6.94001 0.422122 6.87948 0.574484 6.87948H16.0386L10.1262 0.966123C10.0248 0.85722 9.96952 0.71318 9.97215 0.56435C9.97477 0.415519 10.0351 0.273518 10.1403 0.168262C10.2456 0.063007 10.3876 0.00271544 10.5364 8.95026e-05C10.6852 -0.00253644 10.8293 0.0527082 10.9382 0.154185L17.832 7.048C17.9396 7.15571 18 7.30173 18 7.45396C18 7.6062 17.9396 7.75222 17.832 7.85993Z" fill="url(#paint0_linear_125_1173)"/>
<defs>
<linearGradient id="paint0_linear_125_1173" x1="-2.77211e-07" y1="0.0391353" x2="17.6289" y2="15.2975" gradientUnits="userSpaceOnUse">
<stop stop-color="#FFE001"/>
<stop offset="1" stop-color="#FFE001" stop-opacity="0"/>
</linearGradient>
</defs>
</svg>
